  0
SECTION
  2
HEADER
  9
$ACADVER
  1
AC1012
  9
$DWGCODEPAGE
  3
ansi_1252
  9
$INSBASE
 10
0.0
 20
0.0
 30
0.0
  9
$EXTMIN
 10
1.000000000000000E+20
 20
1.000000000000000E+20
 30
1.000000000000000E+20
  9
$EXTMAX
 10
-1.000000000000000E+20
 20
-1.000000000000000E+20
 30
-1.000000000000000E+20
  9
$LIMMIN
 10
0.0
 20
0.0
  9
$LIMMAX
 10
12.0
 20
9.0
  9
$ORTHOMODE
 70
     0
  9
$REGENMODE
 70
     1
  9
$FILLMODE
 70
     1
  9
$QTEXTMODE
 70
     0
  9
$MIRRTEXT
 70
     1
  9
$DRAGMODE
 70
     2
  9
$LTSCALE
 40
1.0
  9
$OSMODE
 70
    37
  9
$ATTMODE
 70
     1
  9
$TEXTSIZE
 40
0.2
  9
$TRACEWID
 40
0.05
  9
$TEXTSTYLE
  7
STANDARD
  9
$CLAYER
  8
0
  9
$CELTYPE
  6
BYLAYER
  9
$CECOLOR
 62
   256
  9
$CELTSCALE
 40
1.0
  9
$DELOBJ
 70
     1
  9
$DISPSILH
 70
     0
  9
$DIMSCALE
 40
1.0
  9
$DIMASZ
 40
0.18
  9
$DIMEXO
 40
0.0625
  9
$DIMDLI
 40
0.38
  9
$DIMRND
 40
0.0
  9
$DIMDLE
 40
0.0
  9
$DIMEXE
 40
0.18
  9
$DIMTP
 40
0.0
  9
$DIMTM
 40
0.0
  9
$DIMTXT
 40
0.18
  9
$DIMCEN
 40
0.09
  9
$DIMTSZ
 40
0.0
  9
$DIMTOL
 70
     0
  9
$DIMLIM
 70
     0
  9
$DIMTIH
 70
     1
  9
$DIMTOH
 70
     1
  9
$DIMSE1
 70
     0
  9
$DIMSE2
 70
     0
  9
$DIMTAD
 70
     0
  9
$DIMZIN
 70
     0
  9
$DIMBLK
  1

  9
$DIMASO
 70
     1
  9
$DIMSHO
 70
     1
  9
$DIMPOST
  1

  9
$DIMAPOST
  1

  9
$DIMALT
 70
     0
  9
$DIMALTD
 70
     2
  9
$DIMALTF
 40
25.4
  9
$DIMLFAC
 40
1.0
  9
$DIMTOFL
 70
     0
  9
$DIMTVP
 40
0.0
  9
$DIMTIX
 70
     0
  9
$DIMSOXD
 70
     0
  9
$DIMSAH
 70
     0
  9
$DIMBLK1
  1

  9
$DIMBLK2
  1

  9
$DIMSTYLE
  2
STANDARD
  9
$DIMCLRD
 70
     0
  9
$DIMCLRE
 70
     0
  9
$DIMCLRT
 70
     0
  9
$DIMTFAC
 40
1.0
  9
$DIMGAP
 40
0.09
  9
$DIMJUST
 70
     0
  9
$DIMSD1
 70
     0
  9
$DIMSD2
 70
     0
  9
$DIMTOLJ
 70
     1
  9
$DIMTZIN
 70
     0
  9
$DIMALTZ
 70
     0
  9
$DIMALTTZ
 70
     0
  9
$DIMFIT
 70
     3
  9
$DIMUPT
 70
     0
  9
$DIMUNIT
 70
     2
  9
$DIMDEC
 70
     4
  9
$DIMTDEC
 70
     4
  9
$DIMALTU
 70
     2
  9
$DIMALTTD
 70
     2
  9
$DIMTXSTY
  7
STANDARD
  9
$DIMAUNIT
 70
     0
  9
$LUNITS
 70
     2
  9
$LUPREC
 70
     4
  9
$SKETCHINC
 40
0.1
  9
$FILLETRAD
 40
0.5
  9
$AUNITS
 70
     0
  9
$AUPREC
 70
     0
  9
$MENU
  1
.
  9
$ELEVATION
 40
0.0
  9
$PELEVATION
 40
0.0
  9
$THICKNESS
 40
0.0
  9
$LIMCHECK
 70
     0
  9
$CHAMFERA
 40
0.5
  9
$CHAMFERB
 40
0.5
  9
$CHAMFERC
 40
1.0
  9
$CHAMFERD
 40
0.0
  9
$SKPOLY
 70
     0
  9
$TDCREATE
 40
2458961.465612963
  9
$TDUPDATE
 40
2458961.465613437
  9
$TDINDWG
 40
0.0000000116
  9
$TDUSRTIMER
 40
0.0000000116
  9
$USRTIMER
 70
     1
  9
$ANGBASE
 50
0.0
  9
$ANGDIR
 70
     0
  9
$PDMODE
 70
     0
  9
$PDSIZE
 40
0.0
  9
$PLINEWID
 40
0.0
  9
$COORDS
 70
     1
  9
$SPLFRAME
 70
     0
  9
$SPLINETYPE
 70
     6
  9
$SPLINESEGS
 70
     8
  9
$ATTDIA
 70
     0
  9
$ATTREQ
 70
     1
  9
$HANDLING
 70
     1
  9
$HANDSEED
  5
15C
  9
$SURFTAB1
 70
     6
  9
$SURFTAB2
 70
     6
  9
$SURFTYPE
 70
     6
  9
$SURFU
 70
     6
  9
$SURFV
 70
     6
  9
$UCSNAME
  2

  9
$UCSORG
 10
0.0
 20
0.0
 30
0.0
  9
$UCSXDIR
 10
1.0
 20
0.0
 30
0.0
  9
$UCSYDIR
 10
0.0
 20
1.0
 30
0.0
  9
$PUCSNAME
  2

  9
$PUCSORG
 10
0.0
 20
0.0
 30
0.0
  9
$PUCSXDIR
 10
1.0
 20
0.0
 30
0.0
  9
$PUCSYDIR
 10
0.0
 20
1.0
 30
0.0
  9
$USERI1
 70
     0
  9
$USERI2
 70
     0
  9
$USERI3
 70
     0
  9
$USERI4
 70
     0
  9
$USERI5
 70
     0
  9
$USERR1
 40
0.0
  9
$USERR2
 40
0.0
  9
$USERR3
 40
0.0
  9
$USERR4
 40
0.0
  9
$USERR5
 40
0.0
  9
$WORLDVIEW
 70
     1
  9
$SHADEDGE
 70
     3
  9
$SHADEDIF
 70
    70
  9
$TILEMODE
 70
     1
  9
$MAXACTVP
 70
    64
  9
$PINSBASE
 10
0.0
 20
0.0
 30
0.0
  9
$PLIMCHECK
 70
     0
  9
$PEXTMIN
 10
1.000000000000000E+20
 20
1.000000000000000E+20
 30
1.000000000000000E+20
  9
$PEXTMAX
 10
-1.000000000000000E+20
 20
-1.000000000000000E+20
 30
-1.000000000000000E+20
  9
$PLIMMIN
 10
0.0
 20
0.0
  9
$PLIMMAX
 10
12.0
 20
9.0
  9
$UNITMODE
 70
     0
  9
$VISRETAIN
 70
     1
  9
$PLINEGEN
 70
     0
  9
$PSLTSCALE
 70
     1
  9
$TREEDEPTH
 70
  3020
  9
$PICKSTYLE
 70
     1
  9
$CMLSTYLE
  2
STANDARD
  9
$CMLJUST
 70
     0
  9
$CMLSCALE
 40
1.0
  9
$SAVEIMAGES
 70
     1
  0
ENDSEC
  0
SECTION
  2
CLASSES
  0
CLASS
  1
ACDBDICTIONARYWDFLT
  2
AcDbDictionaryWithDefault
  3
ObjectDBX Classes
 90
    32768
280
     0
281
     0
  0
CLASS
  1
VISUALSTYLE
  2
AcDbVisualStyle
  3
ObjectDBX Classes
 90
     4095
280
     0
281
     0
  0
CLASS
  1
MATERIAL
  2
AcDbMaterial
  3
ObjectDBX Classes
 90
     1153
280
     0
281
     0
  0
CLASS
  1
SUN
  2
AcDbSun
  3
SCENEOE
 90
     1024
280
     0
281
     0
  0
CLASS
  1
DICTIONARYVAR
  2
AcDbDictionaryVar
  3
ObjectDBX Classes
 90
        0
280
     0
281
     0
  0
CLASS
  1
XRECORD
  2
AcDbXrecord
  3
AutoCAD 2000
 90
    32768
280
     0
281
     0
  0
CLASS
  1
LWPOLYLINE
  2
AcDbPolyline
  3
AutoCAD 2000
 90
    32768
280
     0
281
     1
  0
CLASS
  1
HATCH
  2
AcDbHatch
  3
AutoCAD 2000
 90
    32768
280
     0
281
     1
  0
CLASS
  1
ACDBPLACEHOLDER
  2
AcDbPlaceHolder
  3
ObjectDBX Classes
 90
        0
280
     0
281
     0
  0
CLASS
  1
LAYOUT
  2
AcDbLayout
  3
ObjectDBX Classes
 90
        0
280
     0
281
     0
  0
ENDSEC
  0
SECTION
  2
TABLES
  0
TABLE
  2
VPORT
  5
8
330
0
100
AcDbSymbolTable
 70
     1
  0
VPORT
  5
29
330
8
100
AcDbSymbolTableRecord
100
AcDbViewportTableRecord
  2
*ACTIVE
 70
     0
 10
0.0
 20
0.0
 11
1.0
 21
1.0
 12
0.0
 22
0.0
 13
0.0
 23
0.0
 14
0.5
 24
0.5
 15
0.5
 25
0.5
 16
0.0
 26
0.0
 36
1.0
 17
87.99992302707908
 27
34.86752880072458
 37
0.0
 40
69.73505760144916
 41
2.523835960099654
 42
50.0
 43
0.0
 44
0.0
 50
0.0
 51
0.0
 71
     0
 72
   100
 73
     1
 74
     3
 75
     0
 76
     0
 77
     0
 78
     0
  0
ENDTAB
  0
TABLE
  2
LTYPE
  5
5
330
0
100
AcDbSymbolTable
 70
     1
  0
LTYPE
  5
14
330
5
100
AcDbSymbolTableRecord
100
AcDbLinetypeTableRecord
  2
BYBLOCK
 70
     0
  3

 72
    65
 73
     0
 40
0.0
  0
LTYPE
  5
15
330
5
100
AcDbSymbolTableRecord
100
AcDbLinetypeTableRecord
  2
BYLAYER
 70
     0
  3

 72
    65
 73
     0
 40
0.0
  0
LTYPE
  5
16
330
5
100
AcDbSymbolTableRecord
100
AcDbLinetypeTableRecord
  2
CONTINUOUS
 70
     0
  3
Solid line
 72
    65
 73
     0
 40
0.0
  0
ENDTAB
  0
TABLE
  2
LAYER
  5
2
330
0
100
AcDbSymbolTable
 70
     2
  0
LAYER
  5
10
330
2
100
AcDbSymbolTableRecord
100
AcDbLayerTableRecord
  2
0
 70
     0
 62
     7
  6
CONTINUOUS
  0
LAYER
  5
40
330
2
100
AcDbSymbolTableRecord
100
AcDbLayerTableRecord
  2
LAYER_1
 70
     0
 62
     7
  6
CONTINUOUS
  0
ENDTAB
  0
TABLE
  2
STYLE
  5
3
330
0
100
AcDbSymbolTable
 70
     1
  0
STYLE
  5
11
330
3
100
AcDbSymbolTableRecord
100
AcDbTextStyleTableRecord
  2
STANDARD
 70
     0
 40
0.0
 41
1.0
 50
0.0
 71
     0
 42
0.2
  3
txt
  4

  0
ENDTAB
  0
TABLE
  2
VIEW
  5
6
330
0
100
AcDbSymbolTable
 70
     0
  0
ENDTAB
  0
TABLE
  2
UCS
  5
7
330
0
100
AcDbSymbolTable
 70
     0
  0
ENDTAB
  0
TABLE
  2
APPID
  5
9
330
0
100
AcDbSymbolTable
 70
     1
  0
APPID
  5
12
330
9
100
AcDbSymbolTableRecord
100
AcDbRegAppTableRecord
  2
ACAD
 70
     0
  0
ENDTAB
  0
TABLE
  2
DIMSTYLE
  5
A
330
0
100
AcDbSymbolTable
 70
     1
  0
DIMSTYLE
105
27
330
A
100
AcDbSymbolTableRecord
100
AcDbDimStyleTableRecord
  2
STANDARD
 70
     0
  3

  4

  5

  6

  7

 40
1.0
 41
0.18
 42
0.0625
 43
0.38
 44
0.18
 45
0.0
 46
0.0
 47
0.0
 48
0.0
140
0.18
141
0.09
142
0.0
143
25.4
144
1.0
145
0.0
146
1.0
147
0.09
 71
     0
 72
     0
 73
     1
 74
     1
 75
     0
 76
     0
 77
     0
 78
     0
170
     0
171
     2
172
     0
173
     0
174
     0
175
     0
176
     0
177
     0
178
     0
270
     2
271
     4
272
     4
273
     2
274
     2
340
11
275
     0
280
     0
281
     0
282
     0
283
     1
284
     0
285
     0
286
     0
287
     3
288
     0
  0
ENDTAB
  0
TABLE
  2
BLOCK_RECORD
  5
1
330
0
100
AcDbSymbolTable
 70
     1
  0
BLOCK_RECORD
  5
1F
330
1
100
AcDbSymbolTableRecord
100
AcDbBlockTableRecord
  2
*MODEL_SPACE
  0
BLOCK_RECORD
  5
1B
330
1
100
AcDbSymbolTableRecord
100
AcDbBlockTableRecord
  2
*PAPER_SPACE
  0
ENDTAB
  0
ENDSEC
  0
SECTION
  2
BLOCKS
  0
BLOCK
  5
20
330
1F
100
AcDbEntity
  8
0
100
AcDbBlockBegin
  2
*MODEL_SPACE
 70
     0
 10
0.0
 20
0.0
 30
0.0
  3
*MODEL_SPACE
  1

  0
ENDBLK
  5
21
330
1F
100
AcDbEntity
  8
0
100
AcDbBlockEnd
  0
BLOCK
  5
1C
330
1B
100
AcDbEntity
 67
     1
  8
0
100
AcDbBlockBegin
  2
*PAPER_SPACE
 70
     0
 10
0.0
 20
0.0
 30
0.0
  3
*PAPER_SPACE
  1

  0
ENDBLK
  5
1D
330
1B
100
AcDbEntity
 67
     1
  8
0
100
AcDbBlockEnd
  0
ENDSEC
  0
SECTION
  2
ENTITIES
  0
POLYLINE
  5
41
330
1F
100
AcDbEntity
  8
LAYER_1
 62
   250
100
AcDb2dPolyline
 66
     1
 10
0.0
 20
0.0
 30
0.0
  0
VERTEX
  5
42
330
41
100
AcDbEntity
  8
LAYER_1
 62
   250
100
AcDbVertex
100
AcDb2dVertex
 10
69.67361109369271
 20
49.6005576963401
 30
0.0
  0
VERTEX
  5
43
330
41
100
AcDbEntity
  8
LAYER_1
 62
   250
100
AcDbVertex
100
AcDb2dVertex
 10
102.3408354609328
 20
49.6005576963401
 30
0.0
  0
SEQEND
  5
44
330
41
100
AcDbEntity
  8
LAYER_1
 62
   250
  0
SPLINE
  5
45
330
1F
100
AcDbEntity
  8
LAYER_1
 62
   250
100
AcDbSpline
210
0.0
220
0.0
230
1.0
 70
     8
 71
     3
 72
     8
 73
     4
 74
     0
 42
0.0000000001
 43
0.0000000001
 12
1.0
 22
0.0
 32
0.0
 13
1.0
 23
0.0
 33
0.0
 40
0.0
 40
0.0
 40
0.0
 40
0.0
 40
1.0
 40
1.0
 40
1.0
 40
1.0
 10
69.67361109369271
 20
49.6005576963401
 30
0.0
 10
63.78222866583071
 20
49.6005576963401
 30
0.0
 10
58.10250429184374
 20
47.44861109924896
 30
0.0
 10
53.72806200167758
 20
43.5327809966716
 30
0.0
  0
POLYLINE
  5
46
330
1F
100
AcDbEntity
  8
LAYER_1
 62
   250
100
AcDb2dPolyline
 66
     1
 10
0.0
 20
0.0
 30
0.0
  0
VERTEX
  5
47
330
46
100
AcDbEntity
  8
LAYER_1
 62
   250
100
AcDbVertex
100
AcDb2dVertex
 10
5.997222220722917
 20
43.7091698855164
 30
0.0
  0
VERTEX
  5
48
330
46
100
AcDbEntity
  8
LAYER_1
 62
   250
100
AcDbVertex
100
AcDb2dVertex
 10
5.997222220722917
 20
18.48555878071118
 30
0.0
  0
SEQEND
  5
49
330
46
100
AcDbEntity
  8
LAYER_1
 62
   250
  0
POLYLINE
  5
4A
330
1F
100
AcDbEntity
  8
LAYER_1
 62
   250
100
AcDb2dPolyline
 66
     1
 10
0.0
 20
0.0
 30
0.0
  0
VERTEX
  5
4B
330
4A
100
AcDbEntity
  8
LAYER_1
 62
   250
100
AcDbVertex
100
AcDb2dVertex
 10
53.72806200167758
 20
43.5327809966716
 30
0.0
  0
VERTEX
  5
4C
330
4A
100
AcDbEntity
  8
LAYER_1
 62
   250
100
AcDbVertex
100
AcDb2dVertex
 10
50.23555877277369
 20
40.46361002440287
 30
0.0
  0
SEQEND
  5
4D
330
4A
100
AcDbEntity
  8
LAYER_1
 62
   250
  0
SPLINE
  5
4E
330
1F
100
AcDbEntity
  8
LAYER_1
 62
   250
100
AcDbSpline
210
0.0
220
0.0
230
1.0
 70
     8
 71
     3
 72
     8
 73
     4
 74
     0
 42
0.0000000001
 43
0.0000000001
 12
1.0
 22
0.0
 32
0.0
 13
1.0
 23
0.0
 33
0.0
 40
0.0
 40
0.0
 40
0.0
 40
0.0
 40
1.0
 40
1.0
 40
1.0
 40
1.0
 10
50.23555877277369
 20
40.46361002440287
 30
0.0
 10
49.53000321739452
 20
39.82861433093098
 30
0.0
 10
48.40111002241849
 20
39.8991715013574
 30
0.0
 10
47.7661143289466
 20
40.60472705673657
 30
0.0
  0
SPLINE
  5
4F
330
1F
100
AcDbEntity
  8
LAYER_1
 62
   250
100
AcDbSpline
210
0.0
220
0.0
230
1.0
 70
     8
 71
     3
 72
     8
 73
     4
 74
     0
 42
0.0000000001
 43
0.0000000001
 12
1.0
 22
0.0
 32
0.0
 13
1.0
 23
0.0
 33
0.0
 40
0.0
 40
0.0
 40
0.0
 40
0.0
 40
1.0
 40
1.0
 40
1.0
 40
1.0
 10
47.7661143289466
 20
40.60472705673657
 30
0.0
 10
47.13111594399386
 20
41.31028261211573
 30
0.0
 10
47.20166773145859
 20
42.43916773264922
 30
0.0
 10
47.90722328683776
 20
43.07417150056365
 30
0.0
  0
SPLINE
  5
50
330
1F
100
AcDbEntity
  8
LAYER_1
 62
   250
100
AcDbSpline
210
0.0
220
0.0
230
1.0
 70
     8
 71
     3
 72
     8
 73
     4
 74
     0
 42
0.0000000001
 43
0.0000000001
 12
1.0
 22
0.0
 32
0.0
 13
1.0
 23
0.0
 33
0.0
 40
0.0
 40
0.0
 40
0.0
 40
0.0
 40
1.0
 40
1.0
 40
1.0
 40
1.0
 10
31.67944551311692
 20
39.19361594597824
 30
0.0
 10
30.97388995773776
 20
38.5586121780638
 30
0.0
 10
29.84500483720428
 20
38.62916665700938
 30
0.0
 10
29.21000106928984
 20
39.33472221238854
 30
0.0
  0
SPLINE
  5
51
330
1F
100
AcDbEntity
  8
LAYER_1
 62
   250
100
AcDbSpline
210
0.0
220
0.0
230
1.0
 70
     8
 71
     3
 72
     8
 73
     4
 74
     0
 42
0.0000000001
 43
0.0000000001
 12
1.0
 22
0.0
 32
0.0
 13
1.0
 23
0.0
 33
0.0
 40
0.0
 40
0.0
 40
0.0
 40
0.0
 40
1.0
 40
1.0
 40
1.0
 40
1.0
 10
29.21000106928984
 20
39.33472221238854
 30
0.0
 10
28.57499999285625
 20
40.07556039020219
 30
0.0
 10
28.64555447180183
 20
41.16916557978204
 30
0.0
 10
29.351110027181
 20
41.80416665621563
 30
0.0
  0
POLYLINE
  5
52
330
1F
100
AcDbEntity
  8
LAYER_1
 62
   250
100
AcDb2dPolyline
 66
     1
 10
0.0
 20
0.0
 30
0.0
  0
VERTEX
  5
53
330
52
100
AcDbEntity
  8
LAYER_1
 62
   250
100
AcDbVertex
100
AcDb2dVertex
 10
48.89500483244178
 20
43.95611594478761
 30
0.0
  0
VERTEX
  5
54
330
52
100
AcDbEntity
  8
LAYER_1
 62
   250
100
AcDbVertex
100
AcDb2dVertex
 10
47.90722328683776
 20
43.07417150056365
 30
0.0
  0
SEQEND
  5
55
330
52
100
AcDbEntity
  8
LAYER_1
 62
   250
  0
SPLINE
  5
56
330
1F
100
AcDbEntity
  8
LAYER_1
 62
   250
100
AcDbSpline
210
0.0
220
0.0
230
1.0
 70
     8
 71
     3
 72
     8
 73
     4
 74
     0
 42
0.0000000001
 43
0.0000000001
 12
1.0
 22
0.0
 32
0.0
 13
1.0
 23
0.0
 33
0.0
 40
0.0
 40
0.0
 40
0.0
 40
0.0
 40
1.0
 40
1.0
 40
1.0
 40
1.0
 10
48.89500483244178
 20
43.95611594478761
 30
0.0
 10
49.53000321739452
 20
44.52055446783308
 30
0.0
 10
49.91805554307604
 20
45.33194443311146
 30
0.0
 10
49.98861002202162
 20
46.17860894638178
 30
0.0
  0
SPLINE
  5
57
330
1F
100
AcDbEntity
  8
LAYER_1
 62
   250
100
AcDbSpline
210
0.0
220
0.0
230
1.0
 70
     8
 71
     3
 72
     8
 73
     4
 74
     0
 42
0.0000000001
 43
0.0000000001
 12
1.0
 22
0.0
 32
0.0
 13
1.0
 23
0.0
 33
0.0
 40
0.0
 40
0.0
 40
0.0
 40
0.0
 40
1.0
 40
1.0
 40
1.0
 40
1.0
 10
49.98861002202162
 20
46.17860894638178
 30
0.0
 10
50.0591698839289
 20
47.06055339060574
 30
0.0
 10
49.74166665423125
 20
47.90722866979945
 30
0.0
 10
49.1419455087513
 20
48.50694443231771
 30
0.0
  0
SPLINE
  5
58
330
1F
100
AcDbEntity
  8
LAYER_1
 62
   250
100
AcDbSpline
210
0.0
220
0.0
230
1.0
 70
     8
 71
     3
 72
     8
 73
     4
 74
     0
 42
0.0000000001
 43
0.0000000001
 12
1.0
 22
0.0
 32
0.0
 13
1.0
 23
0.0
 33
0.0
 40
0.0
 40
0.0
 40
0.0
 40
0.0
 40
1.0
 40
1.0
 40
1.0
 40
1.0
 10
49.1419455087513
 20
48.50694443231771
 30
0.0
 10
48.5422270547522
 20
49.14195089171299
 30
0.0
 10
47.7661143289466
 20
49.49472866940258
 30
0.0
 10
46.91944443271458
 20
49.56527776538646
 30
0.0
  0
SPLINE
  5
59
330
1F
100
AcDbEntity
  8
LAYER_1
 62
   250
100
AcDbSpline
210
0.0
220
0.0
230
1.0
 70
     8
 71
     3
 72
     8
 73
     4
 74
     0
 42
0.0000000001
 43
0.0000000001
 12
1.0
 22
0.0
 32
0.0
 13
1.0
 23
0.0
 33
0.0
 40
0.0
 40
0.0
 40
0.0
 40
0.0
 40
1.0
 40
1.0
 40
1.0
 40
1.0
 10
46.91944443271458
 20
49.56527776538646
 30
0.0
 10
46.07278261092511
 20
49.63583762729373
 30
0.0
 10
45.19083816670116
 20
49.35360894558804
 30
0.0
 10
44.55583439878671
 20
48.78917311402341
 30
0.0
  0
POLYLINE
  5
5A
330
1F
100
AcDbEntity
  8
LAYER_1
 62
   250
100
AcDb2dPolyline
 66
     1
 10
0.0
 20
0.0
 30
0.0
  0
VERTEX
  5
5B
330
5A
100
AcDbEntity
  8
LAYER_1
 62
   250
100
AcDbVertex
100
AcDb2dVertex
 10
30.33888888130417
 20
42.68611110043958
 30
0.0
  0
VERTEX
  5
5C
330
5A
100
AcDbEntity
  8
LAYER_1
 62
   250
100
AcDbVertex
100
AcDb2dVertex
 10
29.351110027181
 20
41.80416665621563
 30
0.0
  0
SEQEND
  5
5D
330
5A
100
AcDbEntity
  8
LAYER_1
 62
   250
  0
SPLINE
  5
5E
330
1F
100
AcDbEntity
  8
LAYER_1
 62
   250
100
AcDbSpline
210
0.0
220
0.0
230
1.0
 70
     8
 71
     3
 72
     8
 73
     4
 74
     0
 42
0.0000000001
 43
0.0000000001
 12
1.0
 22
0.0
 32
0.0
 13
1.0
 23
0.0
 33
0.0
 40
0.0
 40
0.0
 40
0.0
 40
0.0
 40
1.0
 40
1.0
 40
1.0
 40
1.0
 10
30.33888888130417
 20
42.68611110043958
 30
0.0
 10
30.97388995773776
 20
43.25056038940844
 30
0.0
 10
31.36194766638098
 20
44.06194766320598
 30
0.0
 10
31.4325048368074
 20
44.94389210742994
 30
0.0
  0
SPLINE
  5
5F
330
1F
100
AcDbEntity
  8
LAYER_1
 62
   250
100
AcDbSpline
210
0.0
220
0.0
230
1.0
 70
     8
 71
     3
 72
     8
 73
     4
 74
     0
 42
0.0000000001
 43
0.0000000001
 12
1.0
 22
0.0
 32
0.0
 13
1.0
 23
0.0
 33
0.0
 40
0.0
 40
0.0
 40
0.0
 40
0.0
 40
1.0
 40
1.0
 40
1.0
 40
1.0
 10
31.4325048368074
 20
44.94389210742994
 30
0.0
 10
31.46777669331849
 20
45.79056200366195
 30
0.0
 10
31.18555877753619
 20
46.63722651693227
 30
0.0
 10
30.55056039258345
 20
47.23694227945053
 30
0.0
  0
SPLINE
  5
60
330
1F
100
AcDbEntity
  8
LAYER_1
 62
   250
100
AcDbSpline
210
0.0
220
0.0
230
1.0
 70
     8
 71
     3
 72
     8
 73
     4
 74
     0
 42
0.0000000001
 43
0.0000000001
 12
1.0
 22
0.0
 32
0.0
 13
1.0
 23
0.0
 33
0.0
 40
0.0
 40
0.0
 40
0.0
 40
0.0
 40
1.0
 40
1.0
 40
1.0
 40
1.0
 10
30.55056039258345
 20
47.23694227945053
 30
0.0
 10
29.98611110361459
 20
47.87194873884582
 30
0.0
 10
29.21000106928984
 20
48.26000644748904
 30
0.0
 10
28.36333655601952
 20
48.33055554347292
 30
0.0
  0
SPLINE
  5
61
330
1F
100
AcDbEntity
  8
LAYER_1
 62
   250
100
AcDbSpline
210
0.0
220
0.0
230
1.0
 70
     8
 71
     3
 72
     8
 73
     4
 74
     0
 42
0.0000000001
 43
0.0000000001
 12
1.0
 22
0.0
 32
0.0
 13
1.0
 23
0.0
 33
0.0
 40
0.0
 40
0.0
 40
0.0
 40
0.0
 40
1.0
 40
1.0
 40
1.0
 40
1.0
 10
28.36333655601952
 20
48.33055554347292
 30
0.0
 10
27.48139211179556
 20
48.36583547442655
 30
0.0
 10
26.63472221556354
 20
48.08361755864424
 30
0.0
 10
25.96444793687844
 20
47.51917096115623
 30
0.0
  0
SPLINE
  5
62
330
1F
100
AcDbEntity
  8
LAYER_1
 62
   250
100
AcDbSpline
210
0.0
220
0.0
230
1.0
 70
     8
 71
     3
 72
     8
 73
     4
 74
     0
 42
0.0000000001
 43
0.0000000001
 12
1.0
 22
0.0
 32
0.0
 13
1.0
 23
0.0
 33
0.0
 40
0.0
 40
0.0
 40
0.0
 40
0.0
 40
1.0
 40
1.0
 40
1.0
 40
1.0
 10
13.47611137689017
 20
36.97111217846067
 30
0.0
 10
12.770555821511
 20
36.33611110202708
 30
0.0
 10
11.64166666375625
 20
36.40666558097266
 30
0.0
 10
11.00666659662798
 20
37.11222113635183
 30
0.0
  0
SPLINE
  5
63
330
1F
100
AcDbEntity
  8
LAYER_1
 62
   250
100
AcDbSpline
210
0.0
220
0.0
230
1.0
 70
     8
 71
     3
 72
     8
 73
     4
 74
     0
 42
0.0000000001
 43
0.0000000001
 12
1.0
 22
0.0
 32
0.0
 13
1.0
 23
0.0
 33
0.0
 40
0.0
 40
0.0
 40
0.0
 40
0.0
 40
1.0
 40
1.0
 40
1.0
 40
1.0
 10
11.00666659662798
 20
37.11222113635183
 30
0.0
 10
10.37166316514865
 20
37.85305662268463
 30
0.0
 10
10.44222571853677
 20
38.94666988670702
 30
0.0
 10
11.14778127391594
 20
39.58166558017891
 30
0.0
  0
POLYLINE
  5
64
330
1F
100
AcDbEntity
  8
LAYER_1
 62
   250
100
AcDb2dPolyline
 66
     1
 10
0.0
 20
0.0
 30
0.0
  0
VERTEX
  5
65
330
64
100
AcDbEntity
  8
LAYER_1
 62
   250
100
AcDbVertex
100
AcDb2dVertex
 10
12.13555205359656
 20
40.46361002440287
 30
0.0
  0
VERTEX
  5
66
330
64
100
AcDbEntity
  8
LAYER_1
 62
   250
100
AcDbVertex
100
AcDb2dVertex
 10
11.14778127391594
 20
39.58166558017891
 30
0.0
  0
SEQEND
  5
67
330
64
100
AcDbEntity
  8
LAYER_1
 62
   250
  0
SPLINE
  5
68
330
1F
100
AcDbEntity
  8
LAYER_1
 62
   250
100
AcDbSpline
210
0.0
220
0.0
230
1.0
 70
     8
 71
     3
 72
     8
 73
     4
 74
     0
 42
0.0000000001
 43
0.0000000001
 12
1.0
 22
0.0
 32
0.0
 13
1.0
 23
0.0
 33
0.0
 40
0.0
 40
0.0
 40
0.0
 40
0.0
 40
1.0
 40
1.0
 40
1.0
 40
1.0
 10
12.13555205359656
 20
40.46361002440287
 30
0.0
 10
12.770555821511
 20
41.02805662189088
 30
0.0
 10
13.15861083867337
 20
41.83944927865011
 30
0.0
 10
13.22916666335938
 20
42.68611110043958
 30
0.0
  0
SPLINE
  5
69
330
1F
100
AcDbEntity
  8
LAYER_1
 62
   250
100
AcDbSpline
210
0.0
220
0.0
230
1.0
 70
     8
 71
     3
 72
     8
 73
     4
 74
     0
 42
0.0000000001
 43
0.0000000001
 12
1.0
 22
0.0
 32
0.0
 13
1.0
 23
0.0
 33
0.0
 40
0.0
 40
0.0
 40
0.0
 40
0.0
 40
1.0
 40
1.0
 40
1.0
 40
1.0
 10
13.22916666335938
 20
42.68611110043958
 30
0.0
 10
13.26444794005344
 20
43.56805554466354
 30
0.0
 10
12.94694471035579
 20
44.41472544089556
 30
0.0
 10
12.34722221913542
 20
45.01444927785636
 30
0.0
  0
SPLINE
  5
6A
330
1F
100
AcDbEntity
  8
LAYER_1
 62
   250
100
AcDbSpline
210
0.0
220
0.0
230
1.0
 70
     8
 71
     3
 72
     8
 73
     4
 74
     0
 42
0.0000000001
 43
0.0000000001
 12
1.0
 22
0.0
 32
0.0
 13
1.0
 23
0.0
 33
0.0
 40
0.0
 40
0.0
 40
0.0
 40
0.0
 40
1.0
 40
1.0
 40
1.0
 40
1.0
 10
12.34722221913542
 20
45.01444927785636
 30
0.0
 10
11.78277427590698
 20
45.64944227984741
 30
0.0
 10
11.00666659662798
 20
46.03749998849063
 30
0.0
 10
10.16000006474702
 20
46.07277991944427
 30
0.0
  0
SPLINE
  5
6B
330
1F
100
AcDbEntity
  8
LAYER_1
 62
   250
100
AcDbSpline
210
0.0
220
0.0
230
1.0
 70
     8
 71
     3
 72
     8
 73
     4
 74
     0
 42
0.0000000001
 43
0.0000000001
 12
1.0
 22
0.0
 32
0.0
 13
1.0
 23
0.0
 33
0.0
 40
0.0
 40
0.0
 40
0.0
 40
0.0
 40
1.0
 40
1.0
 40
1.0
 40
1.0
 10
10.16000006474702
 20
46.07277991944427
 30
0.0
 10
9.278055620523062
 20
46.14333978135154
 30
0.0
 10
8.43138538785594
 20
45.86111109964583
 30
0.0
 10
7.761111109170834
 20
45.29666450215782
 30
0.0
  0
POLYLINE
  5
6C
330
1F
100
AcDbEntity
  8
LAYER_1
 62
   250
100
AcDb2dPolyline
 66
     1
 10
0.0
 20
0.0
 30
0.0
  0
VERTEX
  5
6D
330
6C
100
AcDbEntity
  8
LAYER_1
 62
   250
100
AcDbVertex
100
AcDb2dVertex
 10
69.67361109369271
 20
12.59416693266621
 30
0.0
  0
VERTEX
  5
6E
330
6C
100
AcDbEntity
  8
LAYER_1
 62
   250
100
AcDbVertex
100
AcDb2dVertex
 10
102.3408354609328
 20
12.59416693266621
 30
0.0
  0
SEQEND
  5
6F
330
6C
100
AcDbEntity
  8
LAYER_1
 62
   250
  0
POLYLINE
  5
70
330
1F
100
AcDbEntity
  8
LAYER_1
 62
   250
100
AcDb2dPolyline
 66
     1
 10
0.0
 20
0.0
 30
0.0
  0
VERTEX
  5
71
330
70
100
AcDbEntity
  8
LAYER_1
 62
   250
100
AcDbVertex
100
AcDb2dVertex
 10
44.55583439878671
 20
48.78917311402341
 30
0.0
  0
VERTEX
  5
72
330
70
100
AcDbEntity
  8
LAYER_1
 62
   250
100
AcDbVertex
100
AcDb2dVertex
 10
31.67944551311692
 20
39.19361594597824
 30
0.0
  0
SEQEND
  5
73
330
70
100
AcDbEntity
  8
LAYER_1
 62
   250
  0
POLYLINE
  5
74
330
1F
100
AcDbEntity
  8
LAYER_1
 62
   250
100
AcDb2dPolyline
 66
     1
 10
0.0
 20
0.0
 30
0.0
  0
VERTEX
  5
75
330
74
100
AcDbEntity
  8
LAYER_1
 62
   250
100
AcDbVertex
100
AcDb2dVertex
 10
25.96444793687844
 20
47.51917096115623
 30
0.0
  0
VERTEX
  5
76
330
74
100
AcDbEntity
  8
LAYER_1
 62
   250
100
AcDbVertex
100
AcDb2dVertex
 10
13.47611137689017
 20
36.97111217846067
 30
0.0
  0
SEQEND
  5
77
330
74
100
AcDbEntity
  8
LAYER_1
 62
   250
  0
POLYLINE
  5
78
330
1F
100
AcDbEntity
  8
LAYER_1
 62
   250
100
AcDb2dPolyline
 66
     1
 10
0.0
 20
0.0
 30
0.0
  0
VERTEX
  5
79
330
78
100
AcDbEntity
  8
LAYER_1
 62
   250
100
AcDbVertex
100
AcDb2dVertex
 10
7.761111109170834
 20
45.29666450215782
 30
0.0
  0
VERTEX
  5
7A
330
78
100
AcDbEntity
  8
LAYER_1
 62
   250
100
AcDbVertex
100
AcDb2dVertex
 10
5.997222220722917
 20
43.7091698855164
 30
0.0
  0
SEQEND
  5
7B
330
78
100
AcDbEntity
  8
LAYER_1
 62
   250
  0
SPLINE
  5
7C
330
1F
100
AcDbEntity
  8
LAYER_1
 62
   250
100
AcDbSpline
210
0.0
220
0.0
230
1.0
 70
     8
 71
     3
 72
     8
 73
     4
 74
     0
 42
0.0000000001
 43
0.0000000001
 12
1.0
 22
0.0
 32
0.0
 13
1.0
 23
0.0
 33
0.0
 40
0.0
 40
0.0
 40
0.0
 40
0.0
 40
1.0
 40
1.0
 40
1.0
 40
1.0
 10
69.67361109369271
 20
12.59416693266621
 30
0.0
 10
63.78222866583071
 20
12.59416693266621
 30
0.0
 10
58.10250429184374
 20
14.7461108382765
 30
0.0
 10
53.72806200167758
 20
18.66194766955598
 30
0.0
  0
POLYLINE
  5
7D
330
1F
100
AcDbEntity
  8
LAYER_1
 62
   250
100
AcDb2dPolyline
 66
     1
 10
0.0
 20
0.0
 30
0.0
  0
VERTEX
  5
7E
330
7D
100
AcDbEntity
  8
LAYER_1
 62
   250
100
AcDbVertex
100
AcDb2dVertex
 10
53.72806200167758
 20
18.66194766955598
 30
0.0
  0
VERTEX
  5
7F
330
7D
100
AcDbEntity
  8
LAYER_1
 62
   250
100
AcDbVertex
100
AcDb2dVertex
 10
50.23555877277369
 20
21.76638915259538
 30
0.0
  0
SEQEND
  5
80
330
7D
100
AcDbEntity
  8
LAYER_1
 62
   250
  0
SPLINE
  5
81
330
1F
100
AcDbEntity
  8
LAYER_1
 62
   250
100
AcDbSpline
210
0.0
220
0.0
230
1.0
 70
     8
 71
     3
 72
     8
 73
     4
 74
     0
 42
0.0000000001
 43
0.0000000001
 12
1.0
 22
0.0
 32
0.0
 13
1.0
 23
0.0
 33
0.0
 40
0.0
 40
0.0
 40
0.0
 40
0.0
 40
1.0
 40
1.0
 40
1.0
 40
1.0
 10
50.23555877277369
 20
21.76638915259538
 30
0.0
 10
49.53000321739452
 20
22.40138888328854
 30
0.0
 10
48.40111002241849
 20
22.33083305860254
 30
0.0
 10
47.7661143289466
 20
21.62527750322337
 30
0.0
  0
SPLINE
  5
82
330
1F
100
AcDbEntity
  8
LAYER_1
 62
   250
100
AcDbSpline
210
0.0
220
0.0
230
1.0
 70
     8
 71
     3
 72
     8
 73
     4
 74
     0
 42
0.0000000001
 43
0.0000000001
 12
1.0
 22
0.0
 32
0.0
 13
1.0
 23
0.0
 33
0.0
 40
0.0
 40
0.0
 40
0.0
 40
0.0
 40
1.0
 40
1.0
 40
1.0
 40
1.0
 10
47.7661143289466
 20
21.62527750322337
 30
0.0
 10
47.13111594399386
 20
20.88444470837142
 30
0.0
 10
47.20166773145859
 20
19.79083682731073
 30
0.0
 10
47.90722328683776
 20
19.15583305939629
 30
0.0
  0
SPLINE
  5
83
330
1F
100
AcDbEntity
  8
LAYER_1
 62
   250
100
AcDbSpline
210
0.0
220
0.0
230
1.0
 70
     8
 71
     3
 72
     8
 73
     4
 74
     0
 42
0.0000000001
 43
0.0000000001
 12
1.0
 22
0.0
 32
0.0
 13
1.0
 23
0.0
 33
0.0
 40
0.0
 40
0.0
 40
0.0
 40
0.0
 40
1.0
 40
1.0
 40
1.0
 40
1.0
 10
31.67944551311692
 20
23.00111002876849
 30
0.0
 10
30.97388995773776
 20
23.67139372763657
 30
0.0
 10
29.84500483720428
 20
23.60083655721014
 30
0.0
 10
29.21000106928984
 20
22.86000107087734
 30
0.0
  0
SPLINE
  5
84
330
1F
100
AcDbEntity
  8
LAYER_1
 62
   250
100
AcDbSpline
210
0.0
220
0.0
230
1.0
 70
     8
 71
     3
 72
     8
 73
     4
 74
     0
 42
0.0000000001
 43
0.0000000001
 12
1.0
 22
0.0
 32
0.0
 13
1.0
 23
0.0
 33
0.0
 40
0.0
 40
0.0
 40
0.0
 40
0.0
 40
1.0
 40
1.0
 40
1.0
 40
1.0
 10
29.21000106928984
 20
22.86000107087734
 30
0.0
 10
28.57499999285625
 20
22.15444416975775
 30
0.0
 10
28.64555447180183
 20
21.02555904922427
 30
0.0
 10
29.351110027181
 20
20.39055528130983
 30
0.0
  0
POLYLINE
  5
85
330
1F
100
AcDbEntity
  8
LAYER_1
 62
   250
100
AcDb2dPolyline
 66
     1
 10
0.0
 20
0.0
 30
0.0
  0
VERTEX
  5
86
330
85
100
AcDbEntity
  8
LAYER_1
 62
   250
100
AcDbVertex
100
AcDb2dVertex
 10
48.89500483244178
 20
18.27388861517233
 30
0.0
  0
VERTEX
  5
87
330
85
100
AcDbEntity
  8
LAYER_1
 62
   250
100
AcDbVertex
100
AcDb2dVertex
 10
47.90722328683776
 20
19.15583305939629
 30
0.0
  0
SEQEND
  5
88
330
85
100
AcDbEntity
  8
LAYER_1
 62
   250
  0
SPLINE
  5
89
330
1F
100
AcDbEntity
  8
LAYER_1
 62
   250
100
AcDbSpline
210
0.0
220
0.0
230
1.0
 70
     8
 71
     3
 72
     8
 73
     4
 74
     0
 42
0.0000000001
 43
0.0000000001
 12
1.0
 22
0.0
 32
0.0
 13
1.0
 23
0.0
 33
0.0
 40
0.0
 40
0.0
 40
0.0
 40
0.0
 40
1.0
 40
1.0
 40
1.0
 40
1.0
 10
48.89500483244178
 20
18.27388861517233
 30
0.0
 10
49.53000321739452
 20
17.70944470916517
 30
0.0
 10
49.91805554307604
 20
16.89805878110806
 30
0.0
 10
49.98861002202162
 20
16.0161143368841
 30
0.0
  0
SPLINE
  5
8A
330
1F
100
AcDbEntity
  8
LAYER_1
 62
   250
100
AcDbSpline
210
0.0
220
0.0
230
1.0
 70
     8
 71
     3
 72
     8
 73
     4
 74
     0
 42
0.0000000001
 43
0.0000000001
 12
1.0
 22
0.0
 32
0.0
 13
1.0
 23
0.0
 33
0.0
 40
0.0
 40
0.0
 40
0.0
 40
0.0
 40
1.0
 40
1.0
 40
1.0
 40
1.0
 10
49.98861002202162
 20
16.0161143368841
 30
0.0
 10
50.0591698839289
 20
15.16944444065208
 30
0.0
 10
49.74166665423125
 20
14.32278127312219
 30
0.0
 10
49.1419455087513
 20
13.72305878190181
 30
0.0
  0
SPLINE
  5
8B
330
1F
100
AcDbEntity
  8
LAYER_1
 62
   250
100
AcDbSpline
210
0.0
220
0.0
230
1.0
 70
     8
 71
     3
 72
     8
 73
     4
 74
     0
 42
0.0000000001
 43
0.0000000001
 12
1.0
 22
0.0
 32
0.0
 13
1.0
 23
0.0
 33
0.0
 40
0.0
 40
0.0
 40
0.0
 40
0.0
 40
1.0
 40
1.0
 40
1.0
 40
1.0
 10
49.1419455087513
 20
13.72305878190181
 30
0.0
 10
48.5422270547522
 20
13.08805905120864
 30
0.0
 10
47.7661143289466
 20
12.699999996825
 30
0.0
 10
46.91944443271458
 20
12.629444172139
 30
0.0
  0
SPLINE
  5
8C
330
1F
100
AcDbEntity
  8
LAYER_1
 62
   250
100
AcDbSpline
210
0.0
220
0.0
230
1.0
 70
     8
 71
     3
 72
     8
 73
     4
 74
     0
 42
0.0000000001
 43
0.0000000001
 12
1.0
 22
0.0
 32
0.0
 13
1.0
 23
0.0
 33
0.0
 40
0.0
 40
0.0
 40
0.0
 40
0.0
 40
1.0
 40
1.0
 40
1.0
 40
1.0
 10
46.91944443271458
 20
12.629444172139
 30
0.0
 10
46.07278261092511
 20
12.59416693266621
 30
0.0
 10
45.19083816670116
 20
12.87638888566979
 30
0.0
 10
44.55583439878671
 20
13.44083682889823
 30
0.0
  0
POLYLINE
  5
8D
330
1F
100
AcDbEntity
  8
LAYER_1
 62
   250
100
AcDb2dPolyline
 66
     1
 10
0.0
 20
0.0
 30
0.0
  0
VERTEX
  5
8E
330
8D
100
AcDbEntity
  8
LAYER_1
 62
   250
100
AcDbVertex
100
AcDb2dVertex
 10
30.33888888130417
 20
19.50861083708588
 30
0.0
  0
VERTEX
  5
8F
330
8D
100
AcDbEntity
  8
LAYER_1
 62
   250
100
AcDbVertex
100
AcDb2dVertex
 10
29.351110027181
 20
20.39055528130983
 30
0.0
  0
SEQEND
  5
90
330
8D
100
AcDbEntity
  8
LAYER_1
 62
   250
  0
SPLINE
  5
91
330
1F
100
AcDbEntity
  8
LAYER_1
 62
   250
100
AcDbSpline
210
0.0
220
0.0
230
1.0
 70
     8
 71
     3
 72
     8
 73
     4
 74
     0
 42
0.0000000001
 43
0.0000000001
 12
1.0
 22
0.0
 32
0.0
 13
1.0
 23
0.0
 33
0.0
 40
0.0
 40
0.0
 40
0.0
 40
0.0
 40
1.0
 40
1.0
 40
1.0
 40
1.0
 10
30.33888888130417
 20
19.50861083708588
 30
0.0
 10
30.97388995773776
 20
18.94416693107871
 30
0.0
 10
31.36194766638098
 20
18.1327810030216
 30
0.0
 10
31.4325048368074
 20
17.28611110678958
 30
0.0
  0
SPLINE
  5
92
330
1F
100
AcDbEntity
  8
LAYER_1
 62
   250
100
AcDbSpline
210
0.0
220
0.0
230
1.0
 70
     8
 71
     3
 72
     8
 73
     4
 74
     0
 42
0.0000000001
 43
0.0000000001
 12
1.0
 22
0.0
 32
0.0
 13
1.0
 23
0.0
 33
0.0
 40
0.0
 40
0.0
 40
0.0
 40
0.0
 40
1.0
 40
1.0
 40
1.0
 40
1.0
 10
31.4325048368074
 20
17.28611110678958
 30
0.0
 10
31.46777669331849
 20
16.43944793925969
 30
0.0
 10
31.18555877753619
 20
15.59277804302767
 30
0.0
 10
30.55056039258345
 20
14.95778100381535
 30
0.0
  0
SPLINE
  5
93
330
1F
100
AcDbEntity
  8
LAYER_1
 62
   250
100
AcDbSpline
210
0.0
220
0.0
230
1.0
 70
     8
 71
     3
 72
     8
 73
     4
 74
     0
 42
0.0000000001
 43
0.0000000001
 12
1.0
 22
0.0
 32
0.0
 13
1.0
 23
0.0
 33
0.0
 40
0.0
 40
0.0
 40
0.0
 40
0.0
 40
1.0
 40
1.0
 40
1.0
 40
1.0
 10
30.55056039258345
 20
14.95778100381535
 30
0.0
 10
29.98611110361459
 20
14.35805582111413
 30
0.0
 10
29.21000106928984
 20
13.9700034954326
 30
0.0
 10
28.36333655601952
 20
13.8994476707466
 30
0.0
  0
SPLINE
  5
94
330
1F
100
AcDbEntity
  8
LAYER_1
 62
   250
100
AcDbSpline
210
0.0
220
0.0
230
1.0
 70
     8
 71
     3
 72
     8
 73
     4
 74
     0
 42
0.0000000001
 43
0.0000000001
 12
1.0
 22
0.0
 32
0.0
 13
1.0
 23
0.0
 33
0.0
 40
0.0
 40
0.0
 40
0.0
 40
0.0
 40
1.0
 40
1.0
 40
1.0
 40
1.0
 10
28.36333655601952
 20
13.8994476707466
 30
0.0
 10
27.48139211179556
 20
13.82888915457975
 30
0.0
 10
26.63472221556354
 20
14.11111110758333
 30
0.0
 10
25.96444793687844
 20
14.67555905081177
 30
0.0
  0
SPLINE
  5
95
330
1F
100
AcDbEntity
  8
LAYER_1
 62
   250
100
AcDbSpline
210
0.0
220
0.0
230
1.0
 70
     8
 71
     3
 72
     8
 73
     4
 74
     0
 42
0.0000000001
 43
0.0000000001
 12
1.0
 22
0.0
 32
0.0
 13
1.0
 23
0.0
 33
0.0
 40
0.0
 40
0.0
 40
0.0
 40
0.0
 40
1.0
 40
1.0
 40
1.0
 40
1.0
 10
13.47611137689017
 20
25.25889372723969
 30
0.0
 10
12.770555821511
 20
25.89389211219244
 30
0.0
 10
11.64166666375625
 20
25.82333225028516
 30
0.0
 10
11.00666659662798
 20
25.0825048383949
 30
0.0
  0
SPLINE
  5
96
330
1F
100
AcDbEntity
  8
LAYER_1
 62
   250
100
AcDbSpline
210
0.0
220
0.0
230
1.0
 70
     8
 71
     3
 72
     8
 73
     4
 74
     0
 42
0.0000000001
 43
0.0000000001
 12
1.0
 22
0.0
 32
0.0
 13
1.0
 23
0.0
 33
0.0
 40
0.0
 40
0.0
 40
0.0
 40
0.0
 40
1.0
 40
1.0
 40
1.0
 40
1.0
 10
11.00666659662798
 20
25.0825048383949
 30
0.0
 10
10.37166316514865
 20
24.37694928301574
 30
0.0
 10
10.44222571853677
 20
23.2833333275125
 30
0.0
 10
11.14778127391594
 20
22.61306039456782
 30
0.0
  0
POLYLINE
  5
97
330
1F
100
AcDbEntity
  8
LAYER_1
 62
   250
100
AcDb2dPolyline
 66
     1
 10
0.0
 20
0.0
 30
0.0
  0
VERTEX
  5
98
330
97
100
AcDbEntity
  8
LAYER_1
 62
   250
100
AcDbVertex
100
AcDb2dVertex
 10
12.13555205359656
 20
21.76638915259538
 30
0.0
  0
VERTEX
  5
99
330
97
100
AcDbEntity
  8
LAYER_1
 62
   250
100
AcDbVertex
100
AcDb2dVertex
 10
11.14778127391594
 20
22.61306039456782
 30
0.0
  0
SEQEND
  5
9A
330
97
100
AcDbEntity
  8
LAYER_1
 62
   250
  0
SPLINE
  5
9B
330
1F
100
AcDbEntity
  8
LAYER_1
 62
   250
100
AcDbSpline
210
0.0
220
0.0
230
1.0
 70
     8
 71
     3
 72
     8
 73
     4
 74
     0
 42
0.0000000001
 43
0.0000000001
 12
1.0
 22
0.0
 32
0.0
 13
1.0
 23
0.0
 33
0.0
 40
0.0
 40
0.0
 40
0.0
 40
0.0
 40
1.0
 40
1.0
 40
1.0
 40
1.0
 10
12.13555205359656
 20
21.76638915259538
 30
0.0
 10
12.770555821511
 20
21.166666661375
 30
0.0
 10
13.15861083867337
 20
20.35527804183704
 30
0.0
 10
13.22916666335938
 20
19.50861083708588
 30
0.0
  0
SPLINE
  5
9C
330
1F
100
AcDbEntity
  8
LAYER_1
 62
   250
100
AcDbSpline
210
0.0
220
0.0
230
1.0
 70
     8
 71
     3
 72
     8
 73
     4
 74
     0
 42
0.0000000001
 43
0.0000000001
 12
1.0
 22
0.0
 32
0.0
 13
1.0
 23
0.0
 33
0.0
 40
0.0
 40
0.0
 40
0.0
 40
0.0
 40
1.0
 40
1.0
 40
1.0
 40
1.0
 10
13.22916666335938
 20
19.50861083708588
 30
0.0
 10
13.26444794005344
 20
18.66194766955598
 30
0.0
 10
12.94694471035579
 20
17.81527777332396
 30
0.0
 10
12.34722221913542
 20
17.21555528210358
 30
0.0
  0
SPLINE
  5
9D
330
1F
100
AcDbEntity
  8
LAYER_1
 62
   250
100
AcDbSpline
210
0.0
220
0.0
230
1.0
 70
     8
 71
     3
 72
     8
 73
     4
 74
     0
 42
0.0000000001
 43
0.0000000001
 12
1.0
 22
0.0
 32
0.0
 13
1.0
 23
0.0
 33
0.0
 40
0.0
 40
0.0
 40
0.0
 40
0.0
 40
1.0
 40
1.0
 40
1.0
 40
1.0
 10
12.34722221913542
 20
17.21555528210358
 30
0.0
 10
11.78277427590698
 20
16.58055555141042
 30
0.0
 10
11.00666659662798
 20
16.19250322572889
 30
0.0
 10
10.16000006474702
 20
16.12194470956204
 30
0.0
  0
SPLINE
  5
9E
330
1F
100
AcDbEntity
  8
LAYER_1
 62
   250
100
AcDbSpline
210
0.0
220
0.0
230
1.0
 70
     8
 71
     3
 72
     8
 73
     4
 74
     0
 42
0.0000000001
 43
0.0000000001
 12
1.0
 22
0.0
 32
0.0
 13
1.0
 23
0.0
 33
0.0
 40
0.0
 40
0.0
 40
0.0
 40
0.0
 40
1.0
 40
1.0
 40
1.0
 40
1.0
 10
10.16000006474702
 20
16.12194470956204
 30
0.0
 10
9.278055620523062
 20
16.05138888487604
 30
0.0
 10
8.43138538785594
 20
16.33361083787963
 30
0.0
 10
7.761111109170834
 20
16.9333333291
 30
0.0
  0
POLYLINE
  5
9F
330
1F
100
AcDbEntity
  8
LAYER_1
 62
   250
100
AcDb2dPolyline
 66
     1
 10
0.0
 20
0.0
 30
0.0
  0
VERTEX
  5
A0
330
9F
100
AcDbEntity
  8
LAYER_1
 62
   250
100
AcDbVertex
100
AcDb2dVertex
 10
44.55583439878671
 20
13.44083682889823
 30
0.0
  0
VERTEX
  5
A1
330
9F
100
AcDbEntity
  8
LAYER_1
 62
   250
100
AcDbVertex
100
AcDb2dVertex
 10
31.67944551311692
 20
23.00111002876849
 30
0.0
  0
SEQEND
  5
A2
330
9F
100
AcDbEntity
  8
LAYER_1
 62
   250
  0
POLYLINE
  5
A3
330
1F
100
AcDbEntity
  8
LAYER_1
 62
   250
100
AcDb2dPolyline
 66
     1
 10
0.0
 20
0.0
 30
0.0
  0
VERTEX
  5
A4
330
A3
100
AcDbEntity
  8
LAYER_1
 62
   250
100
AcDbVertex
100
AcDb2dVertex
 10
25.96444793687844
 20
14.67555905081177
 30
0.0
  0
VERTEX
  5
A5
330
A3
100
AcDbEntity
  8
LAYER_1
 62
   250
100
AcDbVertex
100
AcDb2dVertex
 10
13.47611137689017
 20
25.25889372723969
 30
0.0
  0
SEQEND
  5
A6
330
A3
100
AcDbEntity
  8
LAYER_1
 62
   250
  0
POLYLINE
  5
A7
330
1F
100
AcDbEntity
  8
LAYER_1
 62
   250
100
AcDb2dPolyline
 66
     1
 10
0.0
 20
0.0
 30
0.0
  0
VERTEX
  5
A8
330
A7
100
AcDbEntity
  8
LAYER_1
 62
   250
100
AcDbVertex
100
AcDb2dVertex
 10
7.761111109170834
 20
16.9333333291
 30
0.0
  0
VERTEX
  5
A9
330
A7
100
AcDbEntity
  8
LAYER_1
 62
   250
100
AcDbVertex
100
AcDb2dVertex
 10
5.997222220722917
 20
18.48555878071118
 30
0.0
  0
SEQEND
  5
AA
330
A7
100
AcDbEntity
  8
LAYER_1
 62
   250
  0
SPLINE
  5
AB
330
1F
100
AcDbEntity
  8
LAYER_1
 62
   250
100
AcDbSpline
210
0.0
220
0.0
230
1.0
 70
     8
 71
     3
 72
     8
 73
     4
 74
     0
 42
0.0000000001
 43
0.0000000001
 12
1.0
 22
0.0
 32
0.0
 13
1.0
 23
0.0
 33
0.0
 40
0.0
 40
0.0
 40
0.0
 40
0.0
 40
1.0
 40
1.0
 40
1.0
 40
1.0
 10
102.3408354609328
 20
49.6005576963401
 30
0.0
 10
108.1969487237646
 20
49.6005576963401
 30
0.0
 10
113.8766623318281
 20
47.44861109924896
 30
0.0
 10
118.2863845529479
 20
43.5327809966716
 30
0.0
  0
POLYLINE
  5
AC
330
1F
100
AcDbEntity
  8
LAYER_1
 62
   250
100
AcDb2dPolyline
 66
     1
 10
0.0
 20
0.0
 30
0.0
  0
VERTEX
  5
AD
330
AC
100
AcDbEntity
  8
LAYER_1
 62
   250
100
AcDbVertex
100
AcDb2dVertex
 10
165.981944402949
 20
43.7091698855164
 30
0.0
  0
VERTEX
  5
AE
330
AC
100
AcDbEntity
  8
LAYER_1
 62
   250
100
AcDbVertex
100
AcDb2dVertex
 10
165.981944402949
 20
18.48555878071118
 30
0.0
  0
SEQEND
  5
AF
330
AC
100
AcDbEntity
  8
LAYER_1
 62
   250
  0
POLYLINE
  5
B0
330
1F
100
AcDbEntity
  8
LAYER_1
 62
   250
100
AcDb2dPolyline
 66
     1
 10
0.0
 20
0.0
 30
0.0
  0
VERTEX
  5
B1
330
B0
100
AcDbEntity
  8
LAYER_1
 62
   250
100
AcDbVertex
100
AcDb2dVertex
 10
118.2863845529479
 20
43.5327809966716
 30
0.0
  0
VERTEX
  5
B2
330
B0
100
AcDbEntity
  8
LAYER_1
 62
   250
100
AcDbVertex
100
AcDb2dVertex
 10
121.7436132338599
 20
40.46361002440287
 30
0.0
  0
SEQEND
  5
B3
330
B0
100
AcDbEntity
  8
LAYER_1
 62
   250
  0
SPLINE
  5
B4
330
1F
100
AcDbEntity
  8
LAYER_1
 62
   250
100
AcDbSpline
210
0.0
220
0.0
230
1.0
 70
     8
 71
     3
 72
     8
 73
     4
 74
     0
 42
0.0000000001
 43
0.0000000001
 12
1.0
 22
0.0
 32
0.0
 13
1.0
 23
0.0
 33
0.0
 40
0.0
 40
0.0
 40
0.0
 40
0.0
 40
1.0
 40
1.0
 40
1.0
 40
1.0
 10
121.7436132338599
 20
40.46361002440287
 30
0.0
 10
122.4844487201927
 20
39.82861433093098
 30
0.0
 10
123.5780512182917
 20
39.8991715013574
 30
0.0
 10
124.213057677687
 20
40.60472705673657
 30
0.0
  0
SPLINE
  5
B5
330
1F
100
AcDbEntity
  8
LAYER_1
 62
   250
100
AcDbSpline
210
0.0
220
0.0
230
1.0
 70
     8
 71
     3
 72
     8
 73
     4
 74
     0
 42
0.0000000001
 43
0.0000000001
 12
1.0
 22
0.0
 32
0.0
 13
1.0
 23
0.0
 33
0.0
 40
0.0
 40
0.0
 40
0.0
 40
0.0
 40
1.0
 40
1.0
 40
1.0
 40
1.0
 10
124.213057677687
 20
40.60472705673657
 30
0.0
 10
124.8480533711589
 20
41.31028261211573
 30
0.0
 10
124.8127734402052
 20
42.43916773264922
 30
0.0
 10
124.0719487197958
 20
43.07417150056365
 30
0.0
  0
SPLINE
  5
B6
330
1F
100
AcDbEntity
  8
LAYER_1
 62
   250
100
AcDbSpline
210
0.0
220
0.0
230
1.0
 70
     8
 71
     3
 72
     8
 73
     4
 74
     0
 42
0.0000000001
 43
0.0000000001
 12
1.0
 22
0.0
 32
0.0
 13
1.0
 23
0.0
 33
0.0
 40
0.0
 40
0.0
 40
0.0
 40
0.0
 40
1.0
 40
1.0
 40
1.0
 40
1.0
 10
140.2997264935167
 20
39.19361594597824
 30
0.0
 10
141.0405512139261
 20
38.5586121780638
 30
0.0
 10
142.1341644779484
 20
38.62916665700938
 30
0.0
 10
142.7691709373437
 20
39.33472221238854
 30
0.0
  0
SPLINE
  5
B7
330
1F
100
AcDbEntity
  8
LAYER_1
 62
   250
100
AcDbSpline
210
0.0
220
0.0
230
1.0
 70
     8
 71
     3
 72
     8
 73
     4
 74
     0
 42
0.0000000001
 43
0.0000000001
 12
1.0
 22
0.0
 32
0.0
 13
1.0
 23
0.0
 33
0.0
 40
0.0
 40
0.0
 40
0.0
 40
0.0
 40
1.0
 40
1.0
 40
1.0
 40
1.0
 10
142.7691709373437
 20
39.33472221238854
 30
0.0
 10
143.4041666308156
 20
40.07556039020219
 30
0.0
 10
143.368886699862
 20
41.16916557978204
 30
0.0
 10
142.6280512135292
 20
41.80416665621563
 30
0.0
  0
POLYLINE
  5
B8
330
1F
100
AcDbEntity
  8
LAYER_1
 62
   250
100
AcDb2dPolyline
 66
     1
 10
0.0
 20
0.0
 30
0.0
  0
VERTEX
  5
B9
330
B8
100
AcDbEntity
  8
LAYER_1
 62
   250
100
AcDbVertex
100
AcDb2dVertex
 10
123.0841644827109
 20
43.95611594478761
 30
0.0
  0
VERTEX
  5
BA
330
B8
100
AcDbEntity
  8
LAYER_1
 62
   250
100
AcDbVertex
100
AcDb2dVertex
 10
124.0719487197958
 20
43.07417150056365
 30
0.0
  0
SEQEND
  5
BB
330
B8
100
AcDbEntity
  8
LAYER_1
 62
   250
  0
SPLINE
  5
BC
330
1F
100
AcDbEntity
  8
LAYER_1
 62
   250
100
AcDbSpline
210
0.0
220
0.0
230
1.0
 70
     8
 71
     3
 72
     8
 73
     4
 74
     0
 42
0.0000000001
 43
0.0000000001
 12
1.0
 22
0.0
 32
0.0
 13
1.0
 23
0.0
 33
0.0
 40
0.0
 40
0.0
 40
0.0
 40
0.0
 40
1.0
 40
1.0
 40
1.0
 40
1.0
 10
123.0841644827109
 20
43.95611594478761
 30
0.0
 10
122.4491687892391
 20
44.52055446783308
 30
0.0
 10
122.0611110805958
 20
45.33194443311146
 30
0.0
 10
122.0258311496422
 20
46.17860894638178
 30
0.0
  0
SPLINE
  5
BD
330
1F
100
AcDbEntity
  8
LAYER_1
 62
   250
100
AcDbSpline
210
0.0
220
0.0
230
1.0
 70
     8
 71
     3
 72
     8
 73
     4
 74
     0
 42
0.0000000001
 43
0.0000000001
 12
1.0
 22
0.0
 32
0.0
 13
1.0
 23
0.0
 33
0.0
 40
0.0
 40
0.0
 40
0.0
 40
0.0
 40
1.0
 40
1.0
 40
1.0
 40
1.0
 10
122.0258311496422
 20
46.17860894638178
 30
0.0
 10
121.9552820536583
 20
47.06055339060574
 30
0.0
 10
122.2727799003943
 20
47.90722866979945
 30
0.0
 10
122.8724956629125
 20
48.50694443231771
 30
0.0
  0
SPLINE
  5
BE
330
1F
100
AcDbEntity
  8
LAYER_1
 62
   250
100
AcDbSpline
210
0.0
220
0.0
230
1.0
 70
     8
 71
     3
 72
     8
 73
     4
 74
     0
 42
0.0000000001
 43
0.0000000001
 12
1.0
 22
0.0
 32
0.0
 13
1.0
 23
0.0
 33
0.0
 40
0.0
 40
0.0
 40
0.0
 40
0.0
 40
1.0
 40
1.0
 40
1.0
 40
1.0
 10
122.8724956629125
 20
48.50694443231771
 30
0.0
 10
123.4369422604005
 20
49.14195089171299
 30
0.0
 10
124.213057677687
 20
49.49472866940258
 30
0.0
 10
125.0597221909573
 20
49.56527776538646
 30
0.0
  0
SPLINE
  5
BF
330
1F
100
AcDbEntity
  8
LAYER_1
 62
   250
100
AcDbSpline
210
0.0
220
0.0
230
1.0
 70
     8
 71
     3
 72
     8
 73
     4
 74
     0
 42
0.0000000001
 43
0.0000000001
 12
1.0
 22
0.0
 32
0.0
 13
1.0
 23
0.0
 33
0.0
 40
0.0
 40
0.0
 40
0.0
 40
0.0
 40
1.0
 40
1.0
 40
1.0
 40
1.0
 10
125.0597221909573
 20
49.56527776538646
 30
0.0
 10
125.9416666351812
 20
49.63583762729373
 30
0.0
 10
126.7883311484516
 20
49.35360894558804
 30
0.0
 10
127.4586067728771
 20
48.78917311402341
 30
0.0
  0
POLYLINE
  5
C0
330
1F
100
AcDbEntity
  8
LAYER_1
 62
   250
100
AcDb2dPolyline
 66
     1
 10
0.0
 20
0.0
 30
0.0
  0
VERTEX
  5
C1
330
C0
100
AcDbEntity
  8
LAYER_1
 62
   250
100
AcDbVertex
100
AcDb2dVertex
 10
141.6402777423677
 20
42.68611110043958
 30
0.0
  0
VERTEX
  5
C2
330
C0
100
AcDbEntity
  8
LAYER_1
 62
   250
100
AcDbVertex
100
AcDb2dVertex
 10
142.6280512135292
 20
41.80416665621563
 30
0.0
  0
SEQEND
  5
C3
330
C0
100
AcDbEntity
  8
LAYER_1
 62
   250
  0
SPLINE
  5
C4
330
1F
100
AcDbEntity
  8
LAYER_1
 62
   250
100
AcDbSpline
210
0.0
220
0.0
230
1.0
 70
     8
 71
     3
 72
     8
 73
     4
 74
     0
 42
0.0000000001
 43
0.0000000001
 12
1.0
 22
0.0
 32
0.0
 13
1.0
 23
0.0
 33
0.0
 40
0.0
 40
0.0
 40
0.0
 40
0.0
 40
1.0
 40
1.0
 40
1.0
 40
1.0
 10
141.6402777423677
 20
42.68611110043958
 30
0.0
 10
141.0052820488958
 20
43.25056038940844
 30
0.0
 10
140.6172243402526
 20
44.06194766320598
 30
0.0
 10
140.581944409299
 20
44.94389210742994
 30
0.0
  0
SPLINE
  5
C5
330
1F
100
AcDbEntity
  8
LAYER_1
 62
   250
100
AcDbSpline
210
0.0
220
0.0
230
1.0
 70
     8
 71
     3
 72
     8
 73
     4
 74
     0
 42
0.0000000001
 43
0.0000000001
 12
1.0
 22
0.0
 32
0.0
 13
1.0
 23
0.0
 33
0.0
 40
0.0
 40
0.0
 40
0.0
 40
0.0
 40
1.0
 40
1.0
 40
1.0
 40
1.0
 10
140.581944409299
 20
44.94389210742994
 30
0.0
 10
140.5113845473917
 20
45.79056200366195
 30
0.0
 10
140.828893160051
 20
46.63722651693227
 30
0.0
 10
141.4286089225693
 20
47.23694227945053
 30
0.0
  0
SPLINE
  5
C6
330
1F
100
AcDbEntity
  8
LAYER_1
 62
   250
100
AcDbSpline
210
0.0
220
0.0
230
1.0
 70
     8
 71
     3
 72
     8
 73
     4
 74
     0
 42
0.0000000001
 43
0.0000000001
 12
1.0
 22
0.0
 32
0.0
 13
1.0
 23
0.0
 33
0.0
 40
0.0
 40
0.0
 40
0.0
 40
0.0
 40
1.0
 40
1.0
 40
1.0
 40
1.0
 10
141.4286089225693
 20
47.23694227945053
 30
0.0
 10
141.9930555200573
 20
47.87194873884582
 30
0.0
 10
142.7691709373437
 20
48.26000644748904
 30
0.0
 10
143.6158354506141
 20
48.33055554347292
 30
0.0
  0
SPLINE
  5
C7
330
1F
100
AcDbEntity
  8
LAYER_1
 62
   250
100
AcDbSpline
210
0.0
220
0.0
230
1.0
 70
     8
 71
     3
 72
     8
 73
     4
 74
     0
 42
0.0000000001
 43
0.0000000001
 12
1.0
 22
0.0
 32
0.0
 13
1.0
 23
0.0
 33
0.0
 40
0.0
 40
0.0
 40
0.0
 40
0.0
 40
1.0
 40
1.0
 40
1.0
 40
1.0
 10
143.6158354506141
 20
48.33055554347292
 30
0.0
 10
144.497779894838
 20
48.36583547442655
 30
0.0
 10
145.3444444081083
 20
48.08361755864424
 30
0.0
 10
146.0147200325339
 20
47.51917096115623
 30
0.0
  0
SPLINE
  5
C8
330
1F
100
AcDbEntity
  8
LAYER_1
 62
   250
100
AcDbSpline
210
0.0
220
0.0
230
1.0
 70
     8
 71
     3
 72
     8
 73
     4
 74
     0
 42
0.0000000001
 43
0.0000000001
 12
1.0
 22
0.0
 32
0.0
 13
1.0
 23
0.0
 33
0.0
 40
0.0
 40
0.0
 40
0.0
 40
0.0
 40
1.0
 40
1.0
 40
1.0
 40
1.0
 10
158.5030512095605
 20
36.97111217846067
 30
0.0
 10
159.2438866958933
 20
36.33611110202708
 30
0.0
 10
160.3374999599156
 20
36.40666558097266
 30
0.0
 10
160.9724956533875
 20
37.11222113635183
 30
0.0
  0
SPLINE
  5
C9
330
1F
100
AcDbEntity
  8
LAYER_1
 62
   250
100
AcDbSpline
210
0.0
220
0.0
230
1.0
 70
     8
 71
     3
 72
     8
 73
     4
 74
     0
 42
0.0000000001
 43
0.0000000001
 12
1.0
 22
0.0
 32
0.0
 13
1.0
 23
0.0
 33
0.0
 40
0.0
 40
0.0
 40
0.0
 40
0.0
 40
1.0
 40
1.0
 40
1.0
 40
1.0
 10
160.9724956533875
 20
37.11222113635183
 30
0.0
 10
161.6427820437364
 20
37.85305662268463
 30
0.0
 10
161.5722221818292
 20
38.94666988670702
 30
0.0
 10
160.8313866954964
 20
39.58166558017891
 30
0.0
  0
POLYLINE
  5
CA
330
1F
100
AcDbEntity
  8
LAYER_1
 62
   250
100
AcDb2dPolyline
 66
     1
 10
0.0
 20
0.0
 30
0.0
  0
VERTEX
  5
CB
330
CA
100
AcDbEntity
  8
LAYER_1
 62
   250
100
AcDbVertex
100
AcDb2dVertex
 10
159.8436132243349
 20
40.46361002440287
 30
0.0
  0
VERTEX
  5
CC
330
CA
100
AcDbEntity
  8
LAYER_1
 62
   250
100
AcDbVertex
100
AcDb2dVertex
 10
160.8313866954964
 20
39.58166558017891
 30
0.0
  0
SEQEND
  5
CD
330
CA
100
AcDbEntity
  8
LAYER_1
 62
   250
  0
SPLINE
  5
CE
330
1F
100
AcDbEntity
  8
LAYER_1
 62
   250
100
AcDbSpline
210
0.0
220
0.0
230
1.0
 70
     8
 71
     3
 72
     8
 73
     4
 74
     0
 42
0.0000000001
 43
0.0000000001
 12
1.0
 22
0.0
 32
0.0
 13
1.0
 23
0.0
 33
0.0
 40
0.0
 40
0.0
 40
0.0
 40
0.0
 40
1.0
 40
1.0
 40
1.0
 40
1.0
 10
159.8436132243349
 20
40.46361002440287
 30
0.0
 10
159.2086067649396
 20
41.02805662189088
 30
0.0
 10
158.8205598222198
 20
41.83944927865011
 30
0.0
 10
158.7852798912662
 20
42.68611110043958
 30
0.0
  0
SPLINE
  5
CF
330
1F
100
AcDbEntity
  8
LAYER_1
 62
   250
100
AcDbSpline
210
0.0
220
0.0
230
1.0
 70
     8
 71
     3
 72
     8
 73
     4
 74
     0
 42
0.0000000001
 43
0.0000000001
 12
1.0
 22
0.0
 32
0.0
 13
1.0
 23
0.0
 33
0.0
 40
0.0
 40
0.0
 40
0.0
 40
0.0
 40
1.0
 40
1.0
 40
1.0
 40
1.0
 10
158.7852798912662
 20
42.68611110043958
 30
0.0
 10
158.7147200293589
 20
43.56805554466354
 30
0.0
 10
159.0322178760948
 20
44.41472544089556
 30
0.0
 10
159.6319444045365
 20
45.01444927785636
 30
0.0
  0
SPLINE
  5
D0
330
1F
100
AcDbEntity
  8
LAYER_1
 62
   250
100
AcDbSpline
210
0.0
220
0.0
230
1.0
 70
     8
 71
     3
 72
     8
 73
     4
 74
     0
 42
0.0000000001
 43
0.0000000001
 12
1.0
 22
0.0
 32
0.0
 13
1.0
 23
0.0
 33
0.0
 40
0.0
 40
0.0
 40
0.0
 40
0.0
 40
1.0
 40
1.0
 40
1.0
 40
1.0
 10
159.6319444045365
 20
45.01444927785636
 30
0.0
 10
160.1963910020245
 20
45.64944227984741
 30
0.0
 10
161.0077755843412
 20
46.03749998849063
 30
0.0
 10
161.8191709325812
 20
46.07277991944427
 30
0.0
  0
SPLINE
  5
D1
330
1F
100
AcDbEntity
  8
LAYER_1
 62
   250
100
AcDbSpline
210
0.0
220
0.0
230
1.0
 70
     8
 71
     3
 72
     8
 73
     4
 74
     0
 42
0.0000000001
 43
0.0000000001
 12
1.0
 22
0.0
 32
0.0
 13
1.0
 23
0.0
 33
0.0
 40
0.0
 40
0.0
 40
0.0
 40
0.0
 40
1.0
 40
1.0
 40
1.0
 40
1.0
 10
161.8191709325812
 20
46.07277991944427
 30
0.0
 10
162.7011153768052
 20
46.14333978135154
 30
0.0
 10
163.5477798900755
 20
45.86111109964583
 30
0.0
 10
164.2180555145011
 20
45.29666450215782
 30
0.0
  0
POLYLINE
  5
D2
330
1F
100
AcDbEntity
  8
LAYER_1
 62
   250
100
AcDb2dPolyline
 66
     1
 10
0.0
 20
0.0
 30
0.0
  0
VERTEX
  5
D3
330
D2
100
AcDbEntity
  8
LAYER_1
 62
   250
100
AcDbVertex
100
AcDb2dVertex
 10
127.4586067728771
 20
48.78917311402341
 30
0.0
  0
VERTEX
  5
D4
330
D2
100
AcDbEntity
  8
LAYER_1
 62
   250
100
AcDbVertex
100
AcDb2dVertex
 10
140.2997264935167
 20
39.19361594597824
 30
0.0
  0
SEQEND
  5
D5
330
D2
100
AcDbEntity
  8
LAYER_1
 62
   250
  0
POLYLINE
  5
D6
330
1F
100
AcDbEntity
  8
LAYER_1
 62
   250
100
AcDb2dPolyline
 66
     1
 10
0.0
 20
0.0
 30
0.0
  0
VERTEX
  5
D7
330
D6
100
AcDbEntity
  8
LAYER_1
 62
   250
100
AcDbVertex
100
AcDb2dVertex
 10
146.0147200325339
 20
47.51917096115623
 30
0.0
  0
VERTEX
  5
D8
330
D6
100
AcDbEntity
  8
LAYER_1
 62
   250
100
AcDbVertex
100
AcDb2dVertex
 10
158.5030512095605
 20
36.97111217846067
 30
0.0
  0
SEQEND
  5
D9
330
D6
100
AcDbEntity
  8
LAYER_1
 62
   250
  0
POLYLINE
  5
DA
330
1F
100
AcDbEntity
  8
LAYER_1
 62
   250
100
AcDb2dPolyline
 66
     1
 10
0.0
 20
0.0
 30
0.0
  0
VERTEX
  5
DB
330
DA
100
AcDbEntity
  8
LAYER_1
 62
   250
100
AcDbVertex
100
AcDb2dVertex
 10
164.2180555145011
 20
45.29666450215782
 30
0.0
  0
VERTEX
  5
DC
330
DA
100
AcDbEntity
  8
LAYER_1
 62
   250
100
AcDbVertex
100
AcDb2dVertex
 10
165.981944402949
 20
43.7091698855164
 30
0.0
  0
SEQEND
  5
DD
330
DA
100
AcDbEntity
  8
LAYER_1
 62
   250
  0
SPLINE
  5
DE
330
1F
100
AcDbEntity
  8
LAYER_1
 62
   250
100
AcDbSpline
210
0.0
220
0.0
230
1.0
 70
     8
 71
     3
 72
     8
 73
     4
 74
     0
 42
0.0000000001
 43
0.0000000001
 12
1.0
 22
0.0
 32
0.0
 13
1.0
 23
0.0
 33
0.0
 40
0.0
 40
0.0
 40
0.0
 40
0.0
 40
1.0
 40
1.0
 40
1.0
 40
1.0
 10
102.3408354609328
 20
12.59416693266621
 30
0.0
 10
108.1969487237646
 20
12.59416693266621
 30
0.0
 10
113.8766623318281
 20
14.7461108382765
 30
0.0
 10
118.2863845529479
 20
18.66194766955598
 30
0.0
  0
POLYLINE
  5
DF
330
1F
100
AcDbEntity
  8
LAYER_1
 62
   250
100
AcDb2dPolyline
 66
     1
 10
0.0
 20
0.0
 30
0.0
  0
VERTEX
  5
E0
330
DF
100
AcDbEntity
  8
LAYER_1
 62
   250
100
AcDbVertex
100
AcDb2dVertex
 10
118.2863845529479
 20
18.66194766955598
 30
0.0
  0
VERTEX
  5
E1
330
DF
100
AcDbEntity
  8
LAYER_1
 62
   250
100
AcDbVertex
100
AcDb2dVertex
 10
121.7436132338599
 20
21.76638915259538
 30
0.0
  0
SEQEND
  5
E2
330
DF
100
AcDbEntity
  8
LAYER_1
 62
   250
  0
SPLINE
  5
E3
330
1F
100
AcDbEntity
  8
LAYER_1
 62
   250
100
AcDbSpline
210
0.0
220
0.0
230
1.0
 70
     8
 71
     3
 72
     8
 73
     4
 74
     0
 42
0.0000000001
 43
0.0000000001
 12
1.0
 22
0.0
 32
0.0
 13
1.0
 23
0.0
 33
0.0
 40
0.0
 40
0.0
 40
0.0
 40
0.0
 40
1.0
 40
1.0
 40
1.0
 40
1.0
 10
121.7436132338599
 20
21.76638915259538
 30
0.0
 10
122.4844487201927
 20
22.40138888328854
 30
0.0
 10
123.5780512182917
 20
22.33083305860254
 30
0.0
 10
124.213057677687
 20
21.62527750322337
 30
0.0
  0
SPLINE
  5
E4
330
1F
100
AcDbEntity
  8
LAYER_1
 62
   250
100
AcDbSpline
210
0.0
220
0.0
230
1.0
 70
     8
 71
     3
 72
     8
 73
     4
 74
     0
 42
0.0000000001
 43
0.0000000001
 12
1.0
 22
0.0
 32
0.0
 13
1.0
 23
0.0
 33
0.0
 40
0.0
 40
0.0
 40
0.0
 40
0.0
 40
1.0
 40
1.0
 40
1.0
 40
1.0
 10
124.213057677687
 20
21.62527750322337
 30
0.0
 10
124.8480533711589
 20
20.88444470837142
 30
0.0
 10
124.8127734402052
 20
19.79083682731073
 30
0.0
 10
124.0719487197958
 20
19.15583305939629
 30
0.0
  0
SPLINE
  5
E5
330
1F
100
AcDbEntity
  8
LAYER_1
 62
   250
100
AcDbSpline
210
0.0
220
0.0
230
1.0
 70
     8
 71
     3
 72
     8
 73
     4
 74
     0
 42
0.0000000001
 43
0.0000000001
 12
1.0
 22
0.0
 32
0.0
 13
1.0
 23
0.0
 33
0.0
 40
0.0
 40
0.0
 40
0.0
 40
0.0
 40
1.0
 40
1.0
 40
1.0
 40
1.0
 10
140.2997264935167
 20
23.00111002876849
 30
0.0
 10
141.0405512139261
 20
23.67139372763657
 30
0.0
 10
142.1341644779484
 20
23.60083655721014
 30
0.0
 10
142.7691709373437
 20
22.86000107087734
 30
0.0
  0
SPLINE
  5
E6
330
1F
100
AcDbEntity
  8
LAYER_1
 62
   250
100
AcDbSpline
210
0.0
220
0.0
230
1.0
 70
     8
 71
     3
 72
     8
 73
     4
 74
     0
 42
0.0000000001
 43
0.0000000001
 12
1.0
 22
0.0
 32
0.0
 13
1.0
 23
0.0
 33
0.0
 40
0.0
 40
0.0
 40
0.0
 40
0.0
 40
1.0
 40
1.0
 40
1.0
 40
1.0
 10
142.7691709373437
 20
22.86000107087734
 30
0.0
 10
143.4041666308156
 20
22.15444416975775
 30
0.0
 10
143.368886699862
 20
21.02555904922427
 30
0.0
 10
142.6280512135292
 20
20.39055528130983
 30
0.0
  0
POLYLINE
  5
E7
330
1F
100
AcDbEntity
  8
LAYER_1
 62
   250
100
AcDb2dPolyline
 66
     1
 10
0.0
 20
0.0
 30
0.0
  0
VERTEX
  5
E8
330
E7
100
AcDbEntity
  8
LAYER_1
 62
   250
100
AcDbVertex
100
AcDb2dVertex
 10
123.0841644827109
 20
18.27388861517233
 30
0.0
  0
VERTEX
  5
E9
330
E7
100
AcDbEntity
  8
LAYER_1
 62
   250
100
AcDbVertex
100
AcDb2dVertex
 10
124.0719487197958
 20
19.15583305939629
 30
0.0
  0
SEQEND
  5
EA
330
E7
100
AcDbEntity
  8
LAYER_1
 62
   250
  0
SPLINE
  5
EB
330
1F
100
AcDbEntity
  8
LAYER_1
 62
   250
100
AcDbSpline
210
0.0
220
0.0
230
1.0
 70
     8
 71
     3
 72
     8
 73
     4
 74
     0
 42
0.0000000001
 43
0.0000000001
 12
1.0
 22
0.0
 32
0.0
 13
1.0
 23
0.0
 33
0.0
 40
0.0
 40
0.0
 40
0.0
 40
0.0
 40
1.0
 40
1.0
 40
1.0
 40
1.0
 10
123.0841644827109
 20
18.27388861517233
 30
0.0
 10
122.4491687892391
 20
17.70944470916517
 30
0.0
 10
122.0611110805958
 20
16.89805878110806
 30
0.0
 10
122.0258311496422
 20
16.0161143368841
 30
0.0
  0
SPLINE
  5
EC
330
1F
100
AcDbEntity
  8
LAYER_1
 62
   250
100
AcDbSpline
210
0.0
220
0.0
230
1.0
 70
     8
 71
     3
 72
     8
 73
     4
 74
     0
 42
0.0000000001
 43
0.0000000001
 12
1.0
 22
0.0
 32
0.0
 13
1.0
 23
0.0
 33
0.0
 40
0.0
 40
0.0
 40
0.0
 40
0.0
 40
1.0
 40
1.0
 40
1.0
 40
1.0
 10
122.0258311496422
 20
16.0161143368841
 30
0.0
 10
121.9552820536583
 20
15.16944444065208
 30
0.0
 10
122.2727799003943
 20
14.32278127312219
 30
0.0
 10
122.8724956629125
 20
13.72305878190181
 30
0.0
  0
SPLINE
  5
ED
330
1F
100
AcDbEntity
  8
LAYER_1
 62
   250
100
AcDbSpline
210
0.0
220
0.0
230
1.0
 70
     8
 71
     3
 72
     8
 73
     4
 74
     0
 42
0.0000000001
 43
0.0000000001
 12
1.0
 22
0.0
 32
0.0
 13
1.0
 23
0.0
 33
0.0
 40
0.0
 40
0.0
 40
0.0
 40
0.0
 40
1.0
 40
1.0
 40
1.0
 40
1.0
 10
122.8724956629125
 20
13.72305878190181
 30
0.0
 10
123.4369422604005
 20
13.08805905120864
 30
0.0
 10
124.213057677687
 20
12.699999996825
 30
0.0
 10
125.0597221909573
 20
12.629444172139
 30
0.0
  0
SPLINE
  5
EE
330
1F
100
AcDbEntity
  8
LAYER_1
 62
   250
100
AcDbSpline
210
0.0
220
0.0
230
1.0
 70
     8
 71
     3
 72
     8
 73
     4
 74
     0
 42
0.0000000001
 43
0.0000000001
 12
1.0
 22
0.0
 32
0.0
 13
1.0
 23
0.0
 33
0.0
 40
0.0
 40
0.0
 40
0.0
 40
0.0
 40
1.0
 40
1.0
 40
1.0
 40
1.0
 10
125.0597221909573
 20
12.629444172139
 30
0.0
 10
125.9416666351812
 20
12.59416693266621
 30
0.0
 10
126.7883311484516
 20
12.87638888566979
 30
0.0
 10
127.4586067728771
 20
13.44083682889823
 30
0.0
  0
POLYLINE
  5
EF
330
1F
100
AcDbEntity
  8
LAYER_1
 62
   250
100
AcDb2dPolyline
 66
     1
 10
0.0
 20
0.0
 30
0.0
  0
VERTEX
  5
F0
330
EF
100
AcDbEntity
  8
LAYER_1
 62
   250
100
AcDbVertex
100
AcDb2dVertex
 10
141.6402777423677
 20
19.50861083708588
 30
0.0
  0
VERTEX
  5
F1
330
EF
100
AcDbEntity
  8
LAYER_1
 62
   250
100
AcDbVertex
100
AcDb2dVertex
 10
142.6280512135292
 20
20.39055528130983
 30
0.0
  0
SEQEND
  5
F2
330
EF
100
AcDbEntity
  8
LAYER_1
 62
   250
  0
SPLINE
  5
F3
330
1F
100
AcDbEntity
  8
LAYER_1
 62
   250
100
AcDbSpline
210
0.0
220
0.0
230
1.0
 70
     8
 71
     3
 72
     8
 73
     4
 74
     0
 42
0.0000000001
 43
0.0000000001
 12
1.0
 22
0.0
 32
0.0
 13
1.0
 23
0.0
 33
0.0
 40
0.0
 40
0.0
 40
0.0
 40
0.0
 40
1.0
 40
1.0
 40
1.0
 40
1.0
 10
141.6402777423677
 20
19.50861083708588
 30
0.0
 10
141.0052820488958
 20
18.94416693107871
 30
0.0
 10
140.6172243402526
 20
18.1327810030216
 30
0.0
 10
140.581944409299
 20
17.28611110678958
 30
0.0
  0
SPLINE
  5
F4
330
1F
100
AcDbEntity
  8
LAYER_1
 62
   250
100
AcDbSpline
210
0.0
220
0.0
230
1.0
 70
     8
 71
     3
 72
     8
 73
     4
 74
     0
 42
0.0000000001
 43
0.0000000001
 12
1.0
 22
0.0
 32
0.0
 13
1.0
 23
0.0
 33
0.0
 40
0.0
 40
0.0
 40
0.0
 40
0.0
 40
1.0
 40
1.0
 40
1.0
 40
1.0
 10
140.581944409299
 20
17.28611110678958
 30
0.0
 10
140.5113845473917
 20
16.43944793925969
 30
0.0
 10
140.828893160051
 20
15.59277804302767
 30
0.0
 10
141.4286089225693
 20
14.95778100381535
 30
0.0
  0
SPLINE
  5
F5
330
1F
100
AcDbEntity
  8
LAYER_1
 62
   250
100
AcDbSpline
210
0.0
220
0.0
230
1.0
 70
     8
 71
     3
 72
     8
 73
     4
 74
     0
 42
0.0000000001
 43
0.0000000001
 12
1.0
 22
0.0
 32
0.0
 13
1.0
 23
0.0
 33
0.0
 40
0.0
 40
0.0
 40
0.0
 40
0.0
 40
1.0
 40
1.0
 40
1.0
 40
1.0
 10
141.4286089225693
 20
14.95778100381535
 30
0.0
 10
141.9930555200573
 20
14.35805582111413
 30
0.0
 10
142.7691709373437
 20
13.9700034954326
 30
0.0
 10
143.6158354506141
 20
13.8994476707466
 30
0.0
  0
SPLINE
  5
F6
330
1F
100
AcDbEntity
  8
LAYER_1
 62
   250
100
AcDbSpline
210
0.0
220
0.0
230
1.0
 70
     8
 71
     3
 72
     8
 73
     4
 74
     0
 42
0.0000000001
 43
0.0000000001
 12
1.0
 22
0.0
 32
0.0
 13
1.0
 23
0.0
 33
0.0
 40
0.0
 40
0.0
 40
0.0
 40
0.0
 40
1.0
 40
1.0
 40
1.0
 40
1.0
 10
143.6158354506141
 20
13.8994476707466
 30
0.0
 10
144.497779894838
 20
13.82888915457975
 30
0.0
 10
145.3444444081083
 20
14.11111110758333
 30
0.0
 10
146.0147200325339
 20
14.67555905081177
 30
0.0
  0
SPLINE
  5
F7
330
1F
100
AcDbEntity
  8
LAYER_1
 62
   250
100
AcDbSpline
210
0.0
220
0.0
230
1.0
 70
     8
 71
     3
 72
     8
 73
     4
 74
     0
 42
0.0000000001
 43
0.0000000001
 12
1.0
 22
0.0
 32
0.0
 13
1.0
 23
0.0
 33
0.0
 40
0.0
 40
0.0
 40
0.0
 40
0.0
 40
1.0
 40
1.0
 40
1.0
 40
1.0
 10
158.5030512095605
 20
25.25889372723969
 30
0.0
 10
159.2438866958933
 20
25.89389211219244
 30
0.0
 10
160.3374999599156
 20
25.82333225028516
 30
0.0
 10
160.9724956533875
 20
25.0825048383949
 30
0.0
  0
SPLINE
  5
F8
330
1F
100
AcDbEntity
  8
LAYER_1
 62
   250
100
AcDbSpline
210
0.0
220
0.0
230
1.0
 70
     8
 71
     3
 72
     8
 73
     4
 74
     0
 42
0.0000000001
 43
0.0000000001
 12
1.0
 22
0.0
 32
0.0
 13
1.0
 23
0.0
 33
0.0
 40
0.0
 40
0.0
 40
0.0
 40
0.0
 40
1.0
 40
1.0
 40
1.0
 40
1.0
 10
160.9724956533875
 20
25.0825048383949
 30
0.0
 10
161.6427820437364
 20
24.37694928301574
 30
0.0
 10
161.5722221818292
 20
23.2833333275125
 30
0.0
 10
160.8313866954964
 20
22.61306039456782
 30
0.0
  0
POLYLINE
  5
F9
330
1F
100
AcDbEntity
  8
LAYER_1
 62
   250
100
AcDb2dPolyline
 66
     1
 10
0.0
 20
0.0
 30
0.0
  0
VERTEX
  5
FA
330
F9
100
AcDbEntity
  8
LAYER_1
 62
   250
100
AcDbVertex
100
AcDb2dVertex
 10
159.8436132243349
 20
21.76638915259538
 30
0.0
  0
VERTEX
  5
FB
330
F9
100
AcDbEntity
  8
LAYER_1
 62
   250
100
AcDbVertex
100
AcDb2dVertex
 10
160.8313866954964
 20
22.61306039456782
 30
0.0
  0
SEQEND
  5
FC
330
F9
100
AcDbEntity
  8
LAYER_1
 62
   250
  0
SPLINE
  5
FD
330
1F
100
AcDbEntity
  8
LAYER_1
 62
   250
100
AcDbSpline
210
0.0
220
0.0
230
1.0
 70
     8
 71
     3
 72
     8
 73
     4
 74
     0
 42
0.0000000001
 43
0.0000000001
 12
1.0
 22
0.0
 32
0.0
 13
1.0
 23
0.0
 33
0.0
 40
0.0
 40
0.0
 40
0.0
 40
0.0
 40
1.0
 40
1.0
 40
1.0
 40
1.0
 10
159.8436132243349
 20
21.76638915259538
 30
0.0
 10
159.2086067649396
 20
21.166666661375
 30
0.0
 10
158.8205598222198
 20
20.35527804183704
 30
0.0
 10
158.7852798912662
 20
19.50861083708588
 30
0.0
  0
SPLINE
  5
FE
330
1F
100
AcDbEntity
  8
LAYER_1
 62
   250
100
AcDbSpline
210
0.0
220
0.0
230
1.0
 70
     8
 71
     3
 72
     8
 73
     4
 74
     0
 42
0.0000000001
 43
0.0000000001
 12
1.0
 22
0.0
 32
0.0
 13
1.0
 23
0.0
 33
0.0
 40
0.0
 40
0.0
 40
0.0
 40
0.0
 40
1.0
 40
1.0
 40
1.0
 40
1.0
 10
158.7852798912662
 20
19.50861083708588
 30
0.0
 10
158.7147200293589
 20
18.66194766955598
 30
0.0
 10
159.0322178760948
 20
17.81527777332396
 30
0.0
 10
159.6319444045365
 20
17.21555528210358
 30
0.0
  0
SPLINE
  5
FF
330
1F
100
AcDbEntity
  8
LAYER_1
 62
   250
100
AcDbSpline
210
0.0
220
0.0
230
1.0
 70
     8
 71
     3
 72
     8
 73
     4
 74
     0
 42
0.0000000001
 43
0.0000000001
 12
1.0
 22
0.0
 32
0.0
 13
1.0
 23
0.0
 33
0.0
 40
0.0
 40
0.0
 40
0.0
 40
0.0
 40
1.0
 40
1.0
 40
1.0
 40
1.0
 10
159.6319444045365
 20
17.21555528210358
 30
0.0
 10
160.1963910020245
 20
16.58055555141042
 30
0.0
 10
161.0077755843412
 20
16.19250322572889
 30
0.0
 10
161.8191709325812
 20
16.12194470956204
 30
0.0
  0
SPLINE
  5
100
330
1F
100
AcDbEntity
  8
LAYER_1
 62
   250
100
AcDbSpline
210
0.0
220
0.0
230
1.0
 70
     8
 71
     3
 72
     8
 73
     4
 74
     0
 42
0.0000000001
 43
0.0000000001
 12
1.0
 22
0.0
 32
0.0
 13
1.0
 23
0.0
 33
0.0
 40
0.0
 40
0.0
 40
0.0
 40
0.0
 40
1.0
 40
1.0
 40
1.0
 40
1.0
 10
161.8191709325812
 20
16.12194470956204
 30
0.0
 10
162.7011153768052
 20
16.05138888487604
 30
0.0
 10
163.5477798900755
 20
16.33361083787963
 30
0.0
 10
164.2180555145011
 20
16.9333333291
 30
0.0
  0
POLYLINE
  5
101
330
1F
100
AcDbEntity
  8
LAYER_1
 62
   250
100
AcDb2dPolyline
 66
     1
 10
0.0
 20
0.0
 30
0.0
  0
VERTEX
  5
102
330
101
100
AcDbEntity
  8
LAYER_1
 62
   250
100
AcDbVertex
100
AcDb2dVertex
 10
127.4586067728771
 20
13.44083682889823
 30
0.0
  0
VERTEX
  5
103
330
101
100
AcDbEntity
  8
LAYER_1
 62
   250
100
AcDbVertex
100
AcDb2dVertex
 10
140.2997264935167
 20
23.00111002876849
 30
0.0
  0
SEQEND
  5
104
330
101
100
AcDbEntity
  8
LAYER_1
 62
   250
  0
POLYLINE
  5
105
330
1F
100
AcDbEntity
  8
LAYER_1
 62
   250
100
AcDb2dPolyline
 66
     1
 10
0.0
 20
0.0
 30
0.0
  0
VERTEX
  5
106
330
105
100
AcDbEntity
  8
LAYER_1
 62
   250
100
AcDbVertex
100
AcDb2dVertex
 10
146.0147200325339
 20
14.67555905081177
 30
0.0
  0
VERTEX
  5
107
330
105
100
AcDbEntity
  8
LAYER_1
 62
   250
100
AcDbVertex
100
AcDb2dVertex
 10
158.5030512095605
 20
25.25889372723969
 30
0.0
  0
SEQEND
  5
108
330
105
100
AcDbEntity
  8
LAYER_1
 62
   250
  0
POLYLINE
  5
109
330
1F
100
AcDbEntity
  8
LAYER_1
 62
   250
100
AcDb2dPolyline
 66
     1
 10
0.0
 20
0.0
 30
0.0
  0
VERTEX
  5
10A
330
109
100
AcDbEntity
  8
LAYER_1
 62
   250
100
AcDbVertex
100
AcDb2dVertex
 10
164.2180555145011
 20
16.9333333291
 30
0.0
  0
VERTEX
  5
10B
330
109
100
AcDbEntity
  8
LAYER_1
 62
   250
100
AcDbVertex
100
AcDb2dVertex
 10
165.981944402949
 20
18.48555878071118
 30
0.0
  0
SEQEND
  5
10C
330
109
100
AcDbEntity
  8
LAYER_1
 62
   250
  0
POLYLINE
  5
10D
330
1F
100
AcDbEntity
  8
LAYER_1
 62
   250
100
AcDb2dPolyline
 66
     1
 10
0.0
 20
0.0
 30
0.0
  0
VERTEX
  5
10E
330
10D
100
AcDbEntity
  8
LAYER_1
 62
   250
100
AcDbVertex
100
AcDb2dVertex
 10
86.00722866027445
 20
27.62250106968672
 30
0.0
  0
VERTEX
  5
10F
330
10D
100
AcDbEntity
  8
LAYER_1
 62
   250
100
AcDbVertex
100
AcDb2dVertex
 10
86.00722866027445
 20
26.5994476675716
 30
0.0
  0
SEQEND
  5
110
330
10D
100
AcDbEntity
  8
LAYER_1
 62
   250
  0
POLYLINE
  5
111
330
1F
100
AcDbEntity
  8
LAYER_1
 62
   250
100
AcDb2dPolyline
 66
     1
 10
0.0
 20
0.0
 30
0.0
  0
VERTEX
  5
112
330
111
100
AcDbEntity
  8
LAYER_1
 62
   250
100
AcDbVertex
100
AcDb2dVertex
 10
86.00722866027445
 20
25.61167150492928
 30
0.0
  0
VERTEX
  5
113
330
111
100
AcDbEntity
  8
LAYER_1
 62
   250
100
AcDbVertex
100
AcDb2dVertex
 10
86.00722866027445
 20
24.62388995932526
 30
0.0
  0
SEQEND
  5
114
330
111
100
AcDbEntity
  8
LAYER_1
 62
   250
  0
POLYLINE
  5
115
330
1F
100
AcDbEntity
  8
LAYER_1
 62
   250
100
AcDb2dPolyline
 66
     1
 10
0.0
 20
0.0
 30
0.0
  0
VERTEX
  5
116
330
115
100
AcDbEntity
  8
LAYER_1
 62
   250
100
AcDbVertex
100
AcDb2dVertex
 10
86.00722866027445
 20
23.60083655721014
 30
0.0
  0
VERTEX
  5
117
330
115
100
AcDbEntity
  8
LAYER_1
 62
   250
100
AcDbVertex
100
AcDb2dVertex
 10
86.00722866027445
 20
22.61306039456782
 30
0.0
  0
SEQEND
  5
118
330
115
100
AcDbEntity
  8
LAYER_1
 62
   250
  0
POLYLINE
  5
119
330
1F
100
AcDbEntity
  8
LAYER_1
 62
   250
100
AcDb2dPolyline
 66
     1
 10
0.0
 20
0.0
 30
0.0
  0
VERTEX
  5
11A
330
119
100
AcDbEntity
  8
LAYER_1
 62
   250
100
AcDbVertex
100
AcDb2dVertex
 10
86.00722866027445
 20
21.59000026375059
 30
0.0
  0
VERTEX
  5
11B
330
119
100
AcDbEntity
  8
LAYER_1
 62
   250
100
AcDbVertex
100
AcDb2dVertex
 10
86.00722866027445
 20
20.60222544684868
 30
0.0
  0
SEQEND
  5
11C
330
119
100
AcDbEntity
  8
LAYER_1
 62
   250
  0
POLYLINE
  5
11D
330
1F
100
AcDbEntity
  8
LAYER_1
 62
   250
100
AcDb2dPolyline
 66
     1
 10
0.0
 20
0.0
 30
0.0
  0
VERTEX
  5
11E
330
11D
100
AcDbEntity
  8
LAYER_1
 62
   250
100
AcDbVertex
100
AcDb2dVertex
 10
86.00722866027445
 20
19.61444793846594
 30
0.0
  0
VERTEX
  5
11F
330
11D
100
AcDbEntity
  8
LAYER_1
 62
   250
100
AcDbVertex
100
AcDb2dVertex
 10
86.00722866027445
 20
18.59138915338913
 30
0.0
  0
SEQEND
  5
120
330
11D
100
AcDbEntity
  8
LAYER_1
 62
   250
  0
POLYLINE
  5
121
330
1F
100
AcDbEntity
  8
LAYER_1
 62
   250
100
AcDb2dPolyline
 66
     1
 10
0.0
 20
0.0
 30
0.0
  0
VERTEX
  5
122
330
121
100
AcDbEntity
  8
LAYER_1
 62
   250
100
AcDbVertex
100
AcDb2dVertex
 10
86.00722866027445
 20
17.60361433648723
 30
0.0
  0
VERTEX
  5
123
330
121
100
AcDbEntity
  8
LAYER_1
 62
   250
100
AcDbVertex
100
AcDb2dVertex
 10
86.00722866027445
 20
16.61583682810448
 30
0.0
  0
SEQEND
  5
124
330
121
100
AcDbEntity
  8
LAYER_1
 62
   250
  0
POLYLINE
  5
125
330
1F
100
AcDbEntity
  8
LAYER_1
 62
   250
100
AcDb2dPolyline
 66
     1
 10
0.0
 20
0.0
 30
0.0
  0
VERTEX
  5
126
330
125
100
AcDbEntity
  8
LAYER_1
 62
   250
100
AcDbVertex
100
AcDb2dVertex
 10
86.00722866027445
 20
15.59277804302767
 30
0.0
  0
VERTEX
  5
127
330
125
100
AcDbEntity
  8
LAYER_1
 62
   250
100
AcDbVertex
100
AcDb2dVertex
 10
86.00722866027445
 20
14.60500322612577
 30
0.0
  0
SEQEND
  5
128
330
125
100
AcDbEntity
  8
LAYER_1
 62
   250
  0
POLYLINE
  5
129
330
1F
100
AcDbEntity
  8
LAYER_1
 62
   250
100
AcDb2dPolyline
 66
     1
 10
0.0
 20
0.0
 30
0.0
  0
VERTEX
  5
12A
330
129
100
AcDbEntity
  8
LAYER_1
 62
   250
100
AcDbVertex
100
AcDb2dVertex
 10
86.00722866027445
 20
29.59805877793306
 30
0.0
  0
VERTEX
  5
12B
330
129
100
AcDbEntity
  8
LAYER_1
 62
   250
100
AcDbVertex
100
AcDb2dVertex
 10
86.00722866027445
 20
28.61028261529074
 30
0.0
  0
SEQEND
  5
12C
330
129
100
AcDbEntity
  8
LAYER_1
 62
   250
  0
POLYLINE
  5
12D
330
1F
100
AcDbEntity
  8
LAYER_1
 62
   250
100
AcDb2dPolyline
 66
     1
 10
0.0
 20
0.0
 30
0.0
  0
VERTEX
  5
12E
330
12D
100
AcDbEntity
  8
LAYER_1
 62
   250
100
AcDbVertex
100
AcDb2dVertex
 10
86.00722866027445
 20
31.60889372565219
 30
0.0
  0
VERTEX
  5
12F
330
12D
100
AcDbEntity
  8
LAYER_1
 62
   250
100
AcDbVertex
100
AcDb2dVertex
 10
86.00722866027445
 20
30.62111218004818
 30
0.0
  0
SEQEND
  5
130
330
12D
100
AcDbEntity
  8
LAYER_1
 62
   250
  0
POLYLINE
  5
131
330
1F
100
AcDbEntity
  8
LAYER_1
 62
   250
100
AcDb2dPolyline
 66
     1
 10
0.0
 20
0.0
 30
0.0
  0
VERTEX
  5
132
330
131
100
AcDbEntity
  8
LAYER_1
 62
   250
100
AcDbVertex
100
AcDb2dVertex
 10
86.00722866027445
 20
33.61972329040963
 30
0.0
  0
VERTEX
  5
133
330
131
100
AcDbEntity
  8
LAYER_1
 62
   250
100
AcDbVertex
100
AcDb2dVertex
 10
86.00722866027445
 20
32.59666988829452
 30
0.0
  0
SEQEND
  5
134
330
131
100
AcDbEntity
  8
LAYER_1
 62
   250
  0
POLYLINE
  5
135
330
1F
100
AcDbEntity
  8
LAYER_1
 62
   250
100
AcDb2dPolyline
 66
     1
 10
0.0
 20
0.0
 30
0.0
  0
VERTEX
  5
136
330
135
100
AcDbEntity
  8
LAYER_1
 62
   250
100
AcDbVertex
100
AcDb2dVertex
 10
86.00722866027445
 20
35.59528099865598
 30
0.0
  0
VERTEX
  5
137
330
135
100
AcDbEntity
  8
LAYER_1
 62
   250
100
AcDbVertex
100
AcDb2dVertex
 10
86.00722866027445
 20
34.60750483601365
 30
0.0
  0
SEQEND
  5
138
330
135
100
AcDbEntity
  8
LAYER_1
 62
   250
  0
POLYLINE
  5
139
330
1F
100
AcDbEntity
  8
LAYER_1
 62
   250
100
AcDb2dPolyline
 66
     1
 10
0.0
 20
0.0
 30
0.0
  0
VERTEX
  5
13A
330
139
100
AcDbEntity
  8
LAYER_1
 62
   250
100
AcDbVertex
100
AcDb2dVertex
 10
86.00722866027445
 20
37.60611594637511
 30
0.0
  0
VERTEX
  5
13B
330
139
100
AcDbEntity
  8
LAYER_1
 62
   250
100
AcDbVertex
100
AcDb2dVertex
 10
86.00722866027445
 20
36.61833440077109
 30
0.0
  0
SEQEND
  5
13C
330
139
100
AcDbEntity
  8
LAYER_1
 62
   250
  0
POLYLINE
  5
13D
330
1F
100
AcDbEntity
  8
LAYER_1
 62
   250
100
AcDb2dPolyline
 66
     1
 10
0.0
 20
0.0
 30
0.0
  0
VERTEX
  5
13E
330
13D
100
AcDbEntity
  8
LAYER_1
 62
   250
100
AcDbVertex
100
AcDb2dVertex
 10
86.00722866027445
 20
39.61694551113255
 30
0.0
  0
VERTEX
  5
13F
330
13D
100
AcDbEntity
  8
LAYER_1
 62
   250
100
AcDbVertex
100
AcDb2dVertex
 10
86.00722866027445
 20
38.59389210901744
 30
0.0
  0
SEQEND
  5
140
330
13D
100
AcDbEntity
  8
LAYER_1
 62
   250
  0
POLYLINE
  5
141
330
1F
100
AcDbEntity
  8
LAYER_1
 62
   250
100
AcDb2dPolyline
 66
     1
 10
0.0
 20
0.0
 30
0.0
  0
VERTEX
  5
142
330
141
100
AcDbEntity
  8
LAYER_1
 62
   250
100
AcDbVertex
100
AcDb2dVertex
 10
86.00722866027445
 20
41.59250321937889
 30
0.0
  0
VERTEX
  5
143
330
141
100
AcDbEntity
  8
LAYER_1
 62
   250
100
AcDbVertex
100
AcDb2dVertex
 10
86.00722866027445
 20
40.60472705673657
 30
0.0
  0
SEQEND
  5
144
330
141
100
AcDbEntity
  8
LAYER_1
 62
   250
  0
POLYLINE
  5
145
330
1F
100
AcDbEntity
  8
LAYER_1
 62
   250
100
AcDb2dPolyline
 66
     1
 10
0.0
 20
0.0
 30
0.0
  0
VERTEX
  5
146
330
145
100
AcDbEntity
  8
LAYER_1
 62
   250
100
AcDbVertex
100
AcDb2dVertex
 10
86.00722866027445
 20
43.60333816709803
 30
0.0
  0
VERTEX
  5
147
330
145
100
AcDbEntity
  8
LAYER_1
 62
   250
100
AcDbVertex
100
AcDb2dVertex
 10
86.00722866027445
 20
42.61555662149401
 30
0.0
  0
SEQEND
  5
148
330
145
100
AcDbEntity
  8
LAYER_1
 62
   250
  0
POLYLINE
  5
149
330
1F
100
AcDbEntity
  8
LAYER_1
 62
   250
100
AcDb2dPolyline
 66
     1
 10
0.0
 20
0.0
 30
0.0
  0
VERTEX
  5
14A
330
149
100
AcDbEntity
  8
LAYER_1
 62
   250
100
AcDbVertex
100
AcDb2dVertex
 10
86.00722866027445
 20
45.61417311481716
 30
0.0
  0
VERTEX
  5
14B
330
149
100
AcDbEntity
  8
LAYER_1
 62
   250
100
AcDbVertex
100
AcDb2dVertex
 10
86.00722866027445
 20
44.59111432974035
 30
0.0
  0
SEQEND
  5
14C
330
149
100
AcDbEntity
  8
LAYER_1
 62
   250
  0
POLYLINE
  5
14D
330
1F
100
AcDbEntity
  8
LAYER_1
 62
   250
100
AcDb2dPolyline
 66
     1
 10
0.0
 20
0.0
 30
0.0
  0
VERTEX
  5
14E
330
14D
100
AcDbEntity
  8
LAYER_1
 62
   250
100
AcDbVertex
100
AcDb2dVertex
 10
86.00722866027445
 20
47.62499998809376
 30
0.0
  0
VERTEX
  5
14F
330
14D
100
AcDbEntity
  8
LAYER_1
 62
   250
100
AcDbVertex
100
AcDb2dVertex
 10
86.00722866027445
 20
46.60194658597864
 30
0.0
  0
SEQEND
  5
150
330
14D
100
AcDbEntity
  8
LAYER_1
 62
   250
  0
ENDSEC
  0
SECTION
  2
OBJECTS
  0
DICTIONARY
  5
C
330
0
100
AcDbDictionary
  3
ACAD_GROUP
350
D
  3
ACAD_LAYOUT
350
1A
  3
ACAD_MATERIAL
350
3B
  3
ACAD_MLEADERSTYLE
350
153
  3
ACAD_MLINESTYLE
350
17
  3
ACAD_PLOTSETTINGS
350
19
  3
ACAD_VISUALSTYLE
350
2A
  3
ACDBVARIABLEDICTIONARY
350
151
1001
ACAD
1000
TREAT_AS_HARD
1070
     0
  0
DICTIONARY
  5
D
102
{ACAD_REACTORS
330
C
102
}
330
C
100
AcDbDictionary
1001
ACAD
1000
TREAT_AS_HARD
1070
     0
  0
DICTIONARY
  5
1A
102
{ACAD_REACTORS
330
C
102
}
330
C
100
AcDbDictionary
1001
ACAD
1000
TREAT_AS_HARD
1070
     0
  0
DICTIONARY
  5
3B
102
{ACAD_REACTORS
330
C
102
}
330
C
100
AcDbDictionary
  3
BYBLOCK
350
3D
  3
BYLAYER
350
3C
  3
GLOBAL
350
3E
1001
ACAD
1000
TREAT_AS_HARD
1070
     0
  0
DICTIONARY
  5
153
102
{ACAD_REACTORS
330
C
102
}
330
C
100
AcDbDictionary
1001
ACAD
1000
TREAT_AS_HARD
1070
     0
  0
DICTIONARY
  5
17
102
{ACAD_REACTORS
330
C
102
}
330
C
100
AcDbDictionary
  3
STANDARD
350
18
1001
ACAD
1000
TREAT_AS_HARD
1070
     0
  0
DICTIONARY
  5
19
102
{ACAD_REACTORS
330
C
102
}
330
C
100
AcDbDictionary
1001
ACAD
1000
TREAT_AS_HARD
1070
     0
  0
DICTIONARY
  5
2A
102
{ACAD_REACTORS
330
C
102
}
330
C
100
AcDbDictionary
  3
2DWIREFRAME
350
2F
  3
3D_HIDDEN
350
31
  3
3DWIREFRAME
350
30
  3
BASIC
350
32
  3
BRIGHTEN
350
36
  3
COLORCHANGE
350
3A
  3
CONCEPTUAL
350
34
  3
DIM
350
35
  3
FACEPATTERN
350
39
  3
FLAT
350
2B
  3
FLATWITHEDGES
350
2C
  3
GOURAUD
350
2D
  3
GOURAUDWITHEDGES
350
2E
  3
LINEPATTERN
350
38
  3
REALISTIC
350
33
  3
THICKEN
350
37
1001
ACAD
1000
TREAT_AS_HARD
1070
     0
  0
DICTIONARY
  5
151
102
{ACAD_REACTORS
330
C
102
}
330
C
100
AcDbDictionary
  3
DIMASSOC
350
154
  3
HIDETEXT
350
155
1001
ACAD
1000
TREAT_AS_HARD
1070
     0
  0
MATERIAL
  5
3D
102
{ACAD_REACTORS
330
3B
102
}
102
{ACAD_XDICTIONARY
360
158
102
}
330
3B
100
AcDbMaterial
  1
ByBlock
  0
MATERIAL
  5
3C
102
{ACAD_REACTORS
330
3B
102
}
102
{ACAD_XDICTIONARY
360
156
102
}
330
3B
100
AcDbMaterial
  1
ByLayer
  0
MATERIAL
  5
3E
102
{ACAD_REACTORS
330
3B
102
}
102
{ACAD_XDICTIONARY
360
15A
102
}
330
3B
100
AcDbMaterial
  1
Global
  0
MLINESTYLE
  5
18
102
{ACAD_REACTORS
330
17
102
}
330
17
100
AcDbMlineStyle
  2
Standard
 70
     0
  3

 62
   256
 51
90.0
 52
90.0
 71
     2
 49
0.5
 62
   256
  6
BYLAYER
 49
-0.5
 62
   256
  6
BYLAYER
  0
ACAD_PROXY_OBJECT
  5
2F
102
{ACAD_REACTORS
330
2A
102
}
330
2A
100
AcDbZombieObject
 90
      499
 91
      501
 93
      436
310
42CC9915DA5C99599C985B595049028333333333333E3BF0000000000000FB0107901411070040501600405405064090741402480A0340
1001
ACAD
1000
AcDbSavedByObjectVersion
1070
     0
  0
ACAD_PROXY_OBJECT
  5
31
102
{ACAD_REACTORS
330
2A
102
}
330
2A
100
AcDbZombieObject
 90
      499
 91
      501
 93
      500
310
424CD108121A5919195B90640502408333333333333E3BF0000000000000FB01079024090700405020000000000001110200405405064090740C02480A0340
1001
ACAD
1000
AcDbSavedByObjectVersion
1070
     0
  0
ACAD_PROXY_OBJECT
  5
30
102
{ACAD_REACTORS
330
2A
102
}
330
2A
100
AcDbZombieObject
 90
      499
 91
      501
 93
      436
310
42CCD915DA5C99599C985B595059028333333333333E3BF0000000000000FB0107901411070040501600405405064090741402480A0340
1001
ACAD
1000
AcDbSavedByObjectVersion
1070
     0
  0
ACAD_PROXY_OBJECT
  5
32
102
{ACAD_REACTORS
330
2A
102
}
330
2A
100
AcDbZombieObject
 90
      499
 91
      501
 93
      388
310
4150985CDA58D07406404333333333333E3BF0000000000000FB0107A41107004050150841D405064090741402480A0350
1001
ACAD
1000
AcDbSavedByObjectVersion
1070
     0
  0
ACAD_PROXY_OBJECT
  5
36
102
{ACAD_REACTORS
330
2A
102
}
330
2A
100
AcDbZombieObject
 90
      499
 91
      501
 93
      428
310
42109C9A59DA1D195B90C409028333333333333E3BF0000000000000FB010790141107004050150841D405064090741402480A029950
1001
ACAD
1000
AcDbSavedByObjectVersion
1070
     0
  0
ACAD_PROXY_OBJECT
  5
3A
102
{ACAD_REACTORS
330
2A
102
}
330
2A
100
AcDbZombieObject
 90
      499
 91
      501
 93
      452
310
42D0DBDB1BDC90DA185B99D95104090240C333333333333E3BF0000000000000FB0108901411070040501508421405064090741402480A0350
1001
ACAD
1000
AcDbSavedByObjectVersion
1070
     0
  0
ACAD_PROXY_OBJECT
  5
34
102
{ACAD_REACTORS
330
2A
102
}
330
2A
100
AcDbZombieObject
 90
      499
 91
      501
 93
      500
310
4290DBDB98D95C1D1D585B10940D028333333333333E3BF0000000000000FB0107902409070040501000000000000111010841D405064090740C02480A0340
1001
ACAD
1000
AcDbSavedByObjectVersion
1070
     0
  0
ACAD_PROXY_OBJECT
  5
35
102
{ACAD_REACTORS
330
2A
102
}
330
2A
100
AcDbZombieObject
 90
      499
 91
      501
 93
      412
310
40D11A5B50B409028333333333333E3BF0000000000000FB010790141107004050150841D405064090741402480A02677FFFFFD0
1001
ACAD
1000
AcDbSavedByObjectVersion
1070
     0
  0
ACAD_PROXY_OBJECT
  5
39
102
{ACAD_REACTORS
330
2A
102
}
330
2A
100
AcDbZombieObject
 90
      499
 91
      501
 93
      444
310
42D19858D95C185D1D195C9B90F409028333333333333E3BF0000000000000FB010790141107004050150841D405064090741402480A0350
1001
ACAD
1000
AcDbSavedByObjectVersion
1070
     0
  0
ACAD_PROXY_OBJECT
  5
2B
102
{ACAD_REACTORS
330
2A
102
}
330
2A
100
AcDbZombieObject
 90
      499
 91
      501
 93
      388
310
41119B185D240901404333333333333E3BF0000000000000F9010740A41107004050150841D405064090741402480A1B50
1001
ACAD
1000
AcDbSavedByObjectVersion
1070
     0
  0
ACAD_PROXY_OBJECT
  5
2C
102
{ACAD_REACTORS
330
2A
102
}
330
2A
100
AcDbZombieObject
 90
      499
 91
      501
 93
      476
310
43519B185D15DA5D1A115919D95CD0140901404333333333333E3BF0000000000000F9010740901411070040501600405405064090741402480A1B50
1001
ACAD
1000
AcDbSavedByObjectVersion
1070
     0
  0
ACAD_PROXY_OBJECT
  5
2D
102
{ACAD_REACTORS
330
2A
102
}
330
2A
100
AcDbZombieObject
 90
      499
 91
      501
 93
      412
310
41D1DBDD5C985D5910240902404333333333333E3BF0000000000000F9010740A411070040501641D405064090741402480A1B50
1001
ACAD
1000
AcDbSavedByObjectVersion
1070
     0
  0
ACAD_PROXY_OBJECT
  5
2E
102
{ACAD_REACTORS
330
2A
102
}
330
2A
100
AcDbZombieObject
 90
      499
 91
      501
 93
      500
310
4411DBDD5C985D5915DA5D1A115919D95CD0340902404333333333333E3BF0000000000000F9010740901411070040501600405405064090741402480A1B50
1001
ACAD
1000
AcDbSavedByObjectVersion
1070
     0
  0
ACAD_PROXY_OBJECT
  5
38
102
{ACAD_REACTORS
330
2A
102
}
330
2A
100
AcDbZombieObject
 90
      499
 91
      501
 93
      444
310
42D31A5B995C185D1D195C9B90E409028333333333333E3BF0000000000000FB010790141107004050750841D405064090741402483A0350
1001
ACAD
1000
AcDbSavedByObjectVersion
1070
     0
  0
ACAD_PROXY_OBJECT
  5
33
102
{ACAD_REACTORS
330
2A
102
}
330
2A
100
AcDbZombieObject
 90
      499
 91
      501
 93
      420
310
425499585B1A5CDD1A58D08409028333333333333E3BF0000000000000FB01079019070040501508421405064090741402480A1B40
1001
ACAD
1000
AcDbSavedByObjectVersion
1070
     0
  0
ACAD_PROXY_OBJECT
  5
37
102
{ACAD_REACTORS
330
2A
102
}
330
2A
100
AcDbZombieObject
 90
      499
 91
      501
 93
      412
310
41D51A1A58DAD95B90D409028333333333333E3BF0000000000000FB010790141107004050150C41D405064090741402480A0350
1001
ACAD
1000
AcDbSavedByObjectVersion
1070
     0
  0
DICTIONARYVAR
  5
154
102
{ACAD_REACTORS
330
151
102
}
330
151
100
DictionaryVariables
280
     0
  1
2
  0
DICTIONARYVAR
  5
155
102
{ACAD_REACTORS
330
151
102
}
330
151
100
DictionaryVariables
280
     0
  1
1
  0
DICTIONARY
  5
158
330
3D
100
AcDbDictionary
  3
ACAD_XREC_ROUNDTRIP
360
159
1001
ACAD
1000
TREAT_AS_HARD
1070
     1
  0
DICTIONARY
  5
156
330
3C
100
AcDbDictionary
  3
ACAD_XREC_ROUNDTRIP
360
157
1001
ACAD
1000
TREAT_AS_HARD
1070
     1
  0
DICTIONARY
  5
15A
330
3E
100
AcDbDictionary
  3
ACAD_XREC_ROUNDTRIP
360
15B
1001
ACAD
1000
TREAT_AS_HARD
1070
     1
  0
XRECORD
  5
159
102
{ACAD_REACTORS
330
158
102
}
330
158
100
AcDbXrecord
102
MATERIAL
148
0.0
149
0.0
149
0.0
 93
        0
 94
      127
282
     0
 72
     1
 77
     1
171
     1
175
     1
179
     1
273
     0
  0
XRECORD
  5
157
102
{ACAD_REACTORS
330
156
102
}
330
156
100
AcDbXrecord
102
MATERIAL
148
0.0
149
0.0
149
0.0
 93
        0
 94
      127
282
     0
 72
     1
 77
     1
171
     1
175
     1
179
     1
273
     0
  0
XRECORD
  5
15B
102
{ACAD_REACTORS
330
15A
102
}
330
15A
100
AcDbXrecord
102
MATERIAL
148
0.0
149
0.0
149
0.0
 93
        0
 94
      127
282
     0
 72
     1
 77
     1
171
     1
175
     1
179
     1
273
     0
  0
ENDSEC
  0
EOF
